<svg xmlns="http://www.w3.org/2000/svg" version="1.1" viewBox="-5.0 -10.0 110.0 135.0">
 <g fill-rule="evenodd">
  <path d="m72.582 67.547c-0.76172 0-1.3477-0.58594-1.3477-1.3477s0.58594-1.3477 1.3477-1.3477c8.2031 0 14.82-6.6797 14.82-14.879 0-8.1445-6.6211-14.82-14.82-14.82h-42.59c-1.7578 0-3.1055 1.4062-3.1055 3.1055 0 1.6992 1.3477 3.1055 3.1055 3.1055h42.59c4.7461 0 8.6133 3.8672 8.6133 8.6133 0 4.8047-3.8672 8.6719-8.6133 8.6719h-42.59c-1.7578 0-3.1055 1.3477-3.1055 3.1055 0 1.6992 1.3477 3.1055 3.1055 3.1055 0.70312 0 1.3477 0.58594 1.3477 1.3477s-0.64453 1.3477-1.3477 1.3477c-3.2227 0-5.8594-2.5781-5.8594-5.8008s2.6367-5.8594 5.8594-5.8594h42.59c3.2812 0 5.918-2.6367 5.918-5.8594 0-3.2812-2.6367-5.918-5.918-5.918h-42.59c-3.2227 0-5.8594-2.6367-5.8594-5.8594 0-3.2227 2.6367-5.8008 5.8594-5.8008h42.59c9.668 0 17.574 7.8516 17.574 17.574 0 9.668-7.9102 17.516-17.574 17.516z"/>
  <path d="m29.996 58.641c-0.29297 0-0.58594-0.11719-0.82031-0.23438-0.58594-0.46875-0.76172-1.2891-0.29297-1.9336 1.2891-1.875 1.9922-4.1602 1.9922-6.5039s-0.70312-4.5703-1.9922-6.4453c-0.46875-0.64453-0.29297-1.4648 0.29297-1.9336 0.64453-0.41016 1.4648-0.29297 1.9336 0.35156 1.6406 2.3438 2.5195 5.1562 2.5195 8.0273 0 2.9297-0.87891 5.6836-2.5195 8.0859-0.29297 0.35156-0.70312 0.58594-1.1133 0.58594z"/>
  <path d="m75.57 51.375h-43.293c-0.76172 0-1.4062-0.64453-1.4062-1.4062s0.64453-1.3477 1.4062-1.3477h43.293c0.76172 0 1.3477 0.58594 1.3477 1.3477s-0.58594 1.4062-1.3477 1.4062z"/>
  <path d="m72.582 35.148c-0.76172 0-1.3477-0.58594-1.3477-1.3477s0.58594-1.4062 1.3477-1.4062c1.6992 0 3.1055-1.3477 3.1055-3.1055 0-1.6992-1.4062-3.1055-3.1055-3.1055l-42.59 0.058594c-4.8047 0-8.6719-3.9258-8.6719-8.6719 0-4.7461 3.8672-8.6133 8.6719-8.6133h42.59c1.6992 0 3.1055-1.4062 3.1055-3.1055 0-1.6992-1.4062-3.1055-3.1055-3.1055h-42.59c-8.2031 0-14.879 6.6797-14.879 14.82 0 8.2031 6.6797 14.879 14.879 14.879 0.70312 0 1.3477 0.58594 1.3477 1.3477s-0.64453 1.3477-1.3477 1.3477c-9.7266 0-17.574-7.8516-17.574-17.574 0-9.668 7.8516-17.574 17.574-17.574h42.59c3.2227 0 5.8594 2.6367 5.8594 5.8594 0 3.2227-2.6367 5.8008-5.8594 5.8008h-42.59c-3.2812 0-5.918 2.6953-5.918 5.918 0 3.2812 2.6367 5.918 5.918 5.918h42.59c3.2227 0 5.8594 2.6367 5.8594 5.8594 0 3.1641-2.6367 5.8008-5.8594 5.8008z"/>
  <path d="m72.582 26.188c-0.41016 0-0.87891-0.17578-1.1133-0.58594-1.6406-2.3438-2.5195-5.1562-2.5195-8.0273 0-2.8711 0.87891-5.6836 2.5195-8.0273 0.41016-0.64453 1.2891-0.82031 1.875-0.35156 0.64453 0.41016 0.82031 1.2891 0.35156 1.875-1.3477 1.9336-2.0508 4.1602-2.0508 6.5039s0.70312 4.5703 2.0508 6.5039c0.41016 0.58594 0.29297 1.4648-0.35156 1.875-0.23438 0.17578-0.46875 0.23438-0.76172 0.23438z"/>
  <path d="m70.297 18.922h-43.352c-0.76172 0-1.3477-0.58594-1.3477-1.3477s0.58594-1.3477 1.3477-1.3477h43.352c0.76172 0 1.3477 0.58594 1.3477 1.3477s-0.58594 1.3477-1.3477 1.3477z"/>
  <path d="m84.301 100h-56.883c-9.7266 0-17.574-7.9102-17.574-17.574 0-9.7266 7.8516-17.574 17.574-17.574h56.883c3.2227 0 5.8594 2.5781 5.8594 5.8008s-2.6367 5.8594-5.8594 5.8594h-56.883c-3.2812 0-5.918 2.6367-5.918 5.918 0 3.2227 2.6367 5.8594 5.918 5.8594h16.754c0.76172 0 1.3477 0.64453 1.3477 1.4062 0 0.70313-0.58594 1.3477-1.3477 1.3477h-16.754c-4.8047 0-8.6719-3.8672-8.6719-8.6133 0-4.8047 3.8672-8.6719 8.6719-8.6719h56.883c1.6992 0 3.1055-1.4062 3.1055-3.1055 0-1.6992-1.3477-3.1055-3.1055-3.1055h-56.883c-8.2031 0-14.879 6.6797-14.879 14.879 0 8.1445 6.6797 14.82 14.879 14.82h56.883c1.6992 0 3.1055-1.4062 3.1055-3.1055 0-1.7578-1.3477-3.1055-3.1055-3.1055h-23.961c-0.76172 0-1.4062-0.64453-1.4062-1.4062 0-0.76172 0.64453-1.3477 1.4062-1.3477h23.961c3.2227 0 5.8594 2.6367 5.8594 5.8594s-2.6367 5.8594-5.8594 5.8594z"/>
  <path d="m84.301 91.035c-0.41016 0-0.82031-0.17578-1.1133-0.58594-1.6406-2.3438-2.5195-5.1562-2.5195-8.0273 0-2.9297 0.87891-5.6836 2.5195-8.0859 0.41016-0.58594 1.2891-0.76172 1.9336-0.29297 0.58594 0.41016 0.76172 1.2891 0.29297 1.875-1.2891 1.9336-2.0508 4.1602-2.0508 6.5039s0.76172 4.5703 2.0508 6.4453c0.46875 0.64453 0.29297 1.5234-0.29297 1.9336-0.23438 0.17578-0.52734 0.23438-0.82031 0.23438z"/>
  <path d="m82.016 83.773h-43.293c-0.76172 0-1.4062-0.58594-1.4062-1.3477s0.64453-1.4062 1.4062-1.4062h43.293c0.76172 0 1.4062 0.64453 1.4062 1.4062s-0.64453 1.3477-1.4062 1.3477z"/>
  <path d="m57.586 96.719c-0.76172 0-1.582-0.23438-2.2852-0.70312l-3.0469-2.1094-3.1055 2.1094c-1.2891 0.82031-2.8711 0.9375-4.2188 0.23438-1.3477-0.76172-2.168-2.1094-2.168-3.6328v-10.191c0-0.76172 0.64453-1.4062 1.4062-1.4062s1.3477 0.64453 1.3477 1.4062v10.191c0 0.52734 0.23438 0.9375 0.70312 1.1719 0.46875 0.29297 0.9375 0.23438 1.4062-0.058593l3.8672-2.5781c0.46875-0.29297 1.0547-0.29297 1.5234 0l3.8672 2.5781c0.41016 0.29297 0.87891 0.35156 1.3477 0.058593 0.46875-0.23437 0.70312-0.64453 0.70312-1.1719v-10.191c0-0.76172 0.64453-1.4062 1.4062-1.4062 0.76172 0 1.3477 0.64453 1.3477 1.4062v10.191c0 1.5234-0.82031 2.8711-2.168 3.6328-0.58594 0.29297-1.2891 0.46875-1.9336 0.46875z"/>
 </g>
<text x="0.0" y="117.5" font-size="5.0" font-weight="bold" font-family="Arbeit Regular, Helvetica, Arial-Unicode, Arial, Sans-serif" fill="#000000">Created by galaxecons</text><text x="0.0" y="122.5" font-size="5.0" font-weight="bold" font-family="Arbeit Regular, Helvetica, Arial-Unicode, Arial, Sans-serif" fill="#000000">from Noun Project</text></svg>