<svg xmlns="http://www.w3.org/2000/svg" viewBox="0 8 100 100" x="0px" y="0px" width='24' height='24'>
<g fill='#000654'>
<title>Created by ifki from the Noun Project</title>
<rect width="100%" height="100%" fill="transparent"/>
<path d="M56.431,17.361H23.971a1.5,1.5,0,0,0,0,3h32.46A10.7,10.7,0,0,1,66.8,28.423,1.5,1.5,0,1,0,69.7,27.68,13.7,13.7,0,0,0,56.431,17.361Z"/>
<path d="M30.059,84.77a4.364,4.364,0,0,0,0,8.727H72.173c17.772-.681,18.33-25.884.617-27.348,9.847-7.712,4.745-23.806-7.852-24.378A13.694,13.694,0,0,0,69.7,34.423,1.5,1.5,0,1,0,66.8,33.68a10.7,10.7,0,0,1-10.321,8.059H20.814c-.017.006-6.474,0-6.493,0a1.365,1.365,0,1,1,0-2.73h42.11a7.96,7.96,0,1,0,0-15.92H18a.317.317,0,0,0-.087,0H12.941a1.365,1.365,0,0,1,0-2.73h5.03a1.5,1.5,0,0,0,0-3h-5.03a4.365,4.365,0,0,0,0,8.73h3.51v9.92h-2.13a4.365,4.365,0,0,0,0,8.73H16.69a4.359,4.359,0,0,0,4.124,5.725h3.507v9.926H22.189a4.363,4.363,0,0,0,0,8.726h2.372a4.357,4.357,0,0,0,4.123,5.726h3.507V84.77ZM19.451,26.091h36.98a4.96,4.96,0,0,1,0,9.92H19.451Zm2.738,40.027a1.363,1.363,0,0,1,0-2.726H64.3c10.538-.4,10.556-15.524,0-15.926H20.814a1.363,1.363,0,0,1-.019-2.725c.022-.012,35.657.011,35.682,0H64.3c14.17.582,14.185,20.79,0,21.379C59.709,66.127,25.829,66.112,22.189,66.118Zm5.132-5.726V50.466H64.3a4.963,4.963,0,1,1,0,9.926ZM72.173,87.77c10.538-.4,10.555-15.524,0-15.926H28.684a1.363,1.363,0,0,1,0-2.726c5.806,0,38.487,0,43.489,0,14.17.582,14.185,20.789,0,21.379H30.059a1.364,1.364,0,1,1,0-2.727Zm-36.982-3V74.844H72.173a4.963,4.963,0,0,1,0,9.926Z"/><path d="M37.83,53.929H30.467a1.5,1.5,0,0,0,0,3H37.83A1.5,1.5,0,0,0,37.83,53.929Z"/><path d="M73.345,79.807a1.5,1.5,0,0,0-1.5-1.5H41.511a1.5,1.5,0,0,0,0,3H71.845A1.5,1.5,0,0,0,73.345,79.807Z"/><path d="M53.144,53.929H44.6a1.5,1.5,0,0,0,0,3h8.54A1.5,1.5,0,0,0,53.144,53.929Z"/><path d="M73.609,35.263a6.049,6.049,0,0,1,3.933-3.933.3.3,0,0,0,0-.56,6.049,6.049,0,0,1-3.933-3.933.3.3,0,0,0-.56,0,6.049,6.049,0,0,1-3.933,3.933.3.3,0,0,0,0,.56,6.049,6.049,0,0,1,3.933,3.933A.3.3,0,0,0,73.609,35.263Z"/><path d="M20.694,9.83a6.048,6.048,0,0,1-3.932,3.932.3.3,0,0,0,0,.561,6.046,6.046,0,0,1,3.932,3.932.3.3,0,0,0,.561,0,6.046,6.046,0,0,1,3.932-3.932.3.3,0,0,0,0-.561A6.048,6.048,0,0,1,21.255,9.83.3.3,0,0,0,20.694,9.83Z"/><path d="M13.319,60.58a6.049,6.049,0,0,1,3.932-3.933.3.3,0,0,0,0-.561,6.046,6.046,0,0,1-3.932-3.932.3.3,0,0,0-.561,0,6.042,6.042,0,0,1-3.932,3.932.3.3,0,0,0,0,.561,6.045,6.045,0,0,1,3.932,3.933A.3.3,0,0,0,13.319,60.58Z"/><path d="M91.174,62.849a6.045,6.045,0,0,1-3.932-3.933.3.3,0,0,0-.561,0,6.049,6.049,0,0,1-3.932,3.933.3.3,0,0,0,0,.56,6.049,6.049,0,0,1,3.932,3.933.3.3,0,0,0,.561,0,6.045,6.045,0,0,1,3.932-3.933A.3.3,0,0,0,91.174,62.849Z"/><path d="M50.829,29.55H24.805a1.5,1.5,0,0,0,0,3H50.829A1.5,1.5,0,0,0,50.829,29.55Z"/>
</g></svg>