<svg xmlns="http://www.w3.org/2000/svg" xmlns:xlink="http://www.w3.org/1999/xlink" xmlns:serif="http://www.serif.com/" viewBox="1 0 24 24" version="1.1" xml:space="preserve" style="" x="0px" y="0px" fill-rule="evenodd" clip-rule="evenodd" stroke-linejoin="round" stroke-miterlimit="2" width="24" height="24">
<g>
<title>Created by Starin Sani from the Noun Project</title>
<rect width="100%" height="100%" fill="transparent"/>
<path d="M7.785,1.19c-0,-0.133 0.107,-0.24 0.24,-0.24l11.217,0c0.436,0 0.836,0.155 1.148,0.412c0.269,0.22 0.371,0.586 0.254,0.914c-0.117,0.328 -0.428,0.546 -0.775,0.546c-0.069,0 -0.141,0.001 -0.216,0.001l0,3.198l0.215,0c0.351,0 0.664,0.221 0.782,0.551c0.111,0.311 0.027,0.657 -0.21,0.882c0.625,0.172 1.085,0.745 1.085,1.426l-0,2.441c-0,0.817 -0.663,1.479 -1.48,1.479l-0.572,0c0.095,0.154 0.149,0.333 0.149,0.524l0,2.252c0,0.191 -0.054,0.37 -0.149,0.524l0.874,-0c0.053,-0 0.105,0.002 0.156,0.006c0.5,0.042 0.877,0.471 0.856,0.972c-0.016,0.384 -0.261,0.705 -0.6,0.835l0,3.317c0.344,0.129 0.594,0.453 0.61,0.841c0.021,0.507 -0.363,0.939 -0.868,0.977c-0.007,0 -0.015,0.001 -0.022,0.001c-0.043,-0.001 -0.087,0.001 -0.132,0.001l-14.962,0c-0.996,-0 -1.804,-0.808 -1.804,-1.804l0,-3.342c0,-0.513 0.214,-0.976 0.558,-1.304l-0.913,-0c-0.415,-0 -0.751,-0.336 -0.751,-0.751l0,-0.27c0,-0.199 0.08,-0.39 0.22,-0.531c0.141,-0.14 0.332,-0.219 0.531,-0.219l0.537,-0c-0.001,-0.008 -0.001,-0.017 -0.001,-0.025l-0,-0.733l-0.536,0c-0.199,0 -0.39,-0.079 -0.531,-0.219c-0.14,-0.141 -0.22,-0.332 -0.22,-0.531l0,-0.27c0,-0.415 0.336,-0.751 0.751,-0.751l1.77,0c-0.021,-0.067 -0.032,-0.138 -0.032,-0.209l0,-0.351c0,-0.189 0.075,-0.369 0.208,-0.502c0.133,-0.133 0.314,-0.208 0.502,-0.208l0.559,-0l-0,-1.859l-0.559,0c-0.188,0 -0.369,-0.075 -0.502,-0.208c-0.133,-0.133 -0.208,-0.314 -0.208,-0.502l0,-0.351c0,-0.072 0.011,-0.142 0.032,-0.21l-0.716,0c-0.997,0 -1.805,-0.807 -1.805,-1.804l0,-3.342c0,-0.996 0.808,-1.804 1.805,-1.804l2.065,0c0.132,0 0.24,0.107 0.24,0.24l-0,0.02c-0,0.133 -0.108,0.24 -0.24,0.24l-2.065,0c-0.721,0 -1.305,0.584 -1.305,1.304l0,3.342c0,0.72 0.584,1.304 1.305,1.304l14.962,0c0.316,0 0.606,-0.112 0.838,-0.296c0.106,-0.088 0.146,-0.233 0.099,-0.364c-0.047,-0.131 -0.171,-0.219 -0.31,-0.219l-15.108,0c-0.47,0 -0.851,-0.381 -0.851,-0.851l0,-2.49c0,-0.47 0.381,-0.851 0.851,-0.851c0,0 11.704,0 15.107,-0.007l0,0c0.137,0 0.259,-0.086 0.305,-0.214c0.046,-0.129 0.006,-0.272 -0.1,-0.359l-0.001,-0.001c-0.226,-0.186 -0.515,-0.298 -0.83,-0.298l-11.217,0c-0.133,0 -0.24,-0.107 -0.24,-0.24l-0,-0.02Zm0.009,20.388l0,-1.36l-1.193,-0l-0,1.36l0.435,-0.368c0.093,-0.079 0.23,-0.079 0.323,-0l0.435,0.368Zm11.359,-18.755c-4.08,0.006 -14.392,0.006 -14.392,0.006c-0.193,0 -0.351,0.157 -0.351,0.351l0,2.49c0,0.194 0.158,0.351 0.351,0.351l14.392,0l0,-3.198Zm-5.474,1.923c0.138,-0 0.25,0.112 0.25,0.25c0,0.138 -0.112,0.25 -0.25,0.25l-6.468,-0c-0.138,-0 -0.25,-0.112 -0.25,-0.25c-0,-0.138 0.112,-0.25 0.25,-0.25l6.468,-0Zm2.285,-1.142c0.137,0 0.25,0.112 0.25,0.25c-0,0.138 -0.113,0.25 -0.25,0.25l-6.469,0c-0.138,0 -0.25,-0.112 -0.25,-0.25c-0,-0.138 0.112,-0.25 0.25,-0.25l6.469,0Zm2.802,14.112c0,-0.133 0.108,-0.24 0.24,-0.24c0.531,-0 1.01,-0.001 1.418,-0.001c0.234,-0 0.426,-0.184 0.436,-0.418c0.01,-0.233 -0.167,-0.433 -0.4,-0.453c-0.037,-0.003 -0.075,-0.004 -0.113,-0.004l-14.962,-0c-0.72,-0 -1.304,0.584 -1.304,1.304l0,3.342c0,0.72 0.584,1.304 1.304,1.304l14.962,-0c0.043,-0 0.085,-0.002 0.127,-0.002c0.231,-0.023 0.405,-0.222 0.396,-0.456c-0.01,-0.237 -0.206,-0.423 -0.444,-0.421c-0,-0 -0.001,-0 -0.002,-0l-12.13,-0l0,0.447c0,0.097 -0.056,0.186 -0.145,0.227c-0.088,0.041 -0.192,0.027 -0.266,-0.036l-0.686,-0.581l-0.685,0.581c-0.074,0.063 -0.178,0.077 -0.266,0.036c-0.089,-0.041 -0.145,-0.13 -0.145,-0.227l-0,-0.447l-0.234,-0c-0.47,-0 -0.851,-0.381 -0.851,-0.851l0,-2.49c0,-0.47 0.381,-0.851 0.851,-0.851c0,-0 6.722,-0 11.459,-0.002c0.064,-0 0.125,0.025 0.17,0.07c0.045,0.045 0.07,0.106 0.07,0.17c0,0.006 0,0.013 0,0.02c0,0.132 -0.107,0.24 -0.24,0.24c-4.736,0.002 -11.459,0.002 -11.459,0.002c-0.194,-0 -0.351,0.157 -0.351,0.351l0,2.49c0,0.194 0.157,0.351 0.351,0.351l0.234,-0l-0,-1.203c-0,-0.138 0.112,-0.25 0.25,-0.25l1.693,-0c0.138,-0 0.25,0.112 0.25,0.25l0,1.203c1.623,-0 10.633,-0 11.965,-0l0,-3.196c-0.37,0 -0.792,0.001 -1.253,0.001c-0.063,-0 -0.124,-0.025 -0.169,-0.07c-0.045,-0.045 -0.071,-0.106 -0.071,-0.17c0,-0.007 0,-0.013 0,-0.02Zm-7.179,2.68c-0.138,-0 -0.25,-0.112 -0.25,-0.25c0,-0.138 0.112,-0.25 0.25,-0.25l6.469,-0c0.138,-0 0.25,0.112 0.25,0.25c-0,0.138 -0.112,0.25 -0.25,0.25l-6.469,-0Zm-2.284,-1.142c-0.138,0 -0.25,-0.112 -0.25,-0.25c-0,-0.138 0.112,-0.25 0.25,-0.25l6.468,0c0.138,0 0.25,0.112 0.25,0.25c0,0.138 -0.112,0.25 -0.25,0.25l-6.468,0Zm-5.042,-4.425c3.332,-0 13.566,-0 13.566,-0l0,-0.758l-13.565,0l-0,0.733c-0,0.008 -0,0.017 -0.001,0.025Zm2.472,-5.658l-0,1.859l10.146,-0l-0,-1.319c-0,-0.138 0.112,-0.25 0.25,-0.25l1.693,-0c0.138,-0 0.25,0.112 0.25,0.25l0,1.319l0.521,-0l0,-1.859l-12.86,0Zm8.088,0.679c0.138,0 0.25,0.112 0.25,0.25c0,0.138 -0.112,0.25 -0.25,0.25l-6.468,0c-0.138,0 -0.25,-0.112 -0.25,-0.25c-0,-0.138 0.112,-0.25 0.25,-0.25l6.468,0Zm3.738,6.25c0.308,-0 0.563,-0.231 0.563,-0.524l0,-2.252c0,-0.293 -0.255,-0.524 -0.563,-0.524l-15.333,0c-0.138,0 -0.251,0.113 -0.251,0.251l0,0.27c0,0.066 0.027,0.13 0.074,0.177c0.047,0.047 0.11,0.073 0.177,0.073l14.851,0c0.138,0 0.25,0.112 0.25,0.25l0,1.258c0,0.138 -0.112,0.25 -0.25,0.25l-14.851,-0c-0.067,-0 -0.13,0.026 -0.177,0.073c-0.047,0.047 -0.074,0.111 -0.074,0.177l0,0.27c0,0.138 0.113,0.251 0.251,0.251l15.333,-0Zm-12.885,-3.8l14.371,0c0.541,0 0.98,-0.438 0.98,-0.979l-0,-2.441c-0,-0.541 -0.439,-0.98 -0.98,-0.98l-14.371,0c-0.056,0 -0.109,0.023 -0.149,0.062c-0.039,0.039 -0.061,0.093 -0.061,0.148l0,0.351c0,0.056 0.022,0.109 0.061,0.149c0.04,0.039 0.093,0.061 0.149,0.061l14.169,0c0.138,0 0.25,0.112 0.25,0.25l0,2.359c0,0.138 -0.112,0.25 -0.25,0.25l-0.771,-0l0,0.331c0,0.097 -0.056,0.186 -0.144,0.227c-0.089,0.041 -0.193,0.026 -0.267,-0.036l-0.685,-0.581l-0.685,0.581c-0.075,0.062 -0.179,0.077 -0.267,0.036c-0.089,-0.041 -0.145,-0.13 -0.145,-0.227l-0,-0.331l-11.205,-0c-0.056,-0 -0.109,0.022 -0.149,0.061c-0.039,0.04 -0.061,0.093 -0.061,0.149l0,0.351c0,0.055 0.022,0.109 0.061,0.148c0.04,0.039 0.093,0.061 0.149,0.061Zm11.705,-2.339l-0,1.36l0.435,-0.369c0.093,-0.079 0.23,-0.079 0.323,0l0.435,0.369l0,-1.36l-1.193,-0Z" fill='#000654' />
</g>
</svg>