<svg width="36" height="34" viewBox="0 0 36 34" fill="none" xmlns="http://www.w3.org/2000/svg">
<rect x="1.09998" y="17.4805" width="5" height="13" fill="#1AA23E"/>
<path d="M11.9002 17.4805H6.86017V18.2005V27.8005L23.1802 32.6005C25.9002 31.5605 30.604 29.3645 33.1 28.9805C35.596 28.5965 35.14 26.9405 34.1 25.9805H25.6L24.6202 22.0405L11.9002 17.4805Z" fill="#EAF5E9" stroke="#EAF5E9"/>
<path d="M22.5 33.6199L6.89998 29.0199V31.5199H0.0999756V16.9199H11.9L23.9 21.3199C24.5 21.5533 25.0333 21.9779 25.5 22.5939C25.9666 23.2113 26.2 24.0533 26.2 25.1199H32.8C33.8666 25.1199 34.65 25.5033 35.15 26.2699C35.65 27.0366 35.9 28.0533 35.9 29.3199V29.4199L22.5 33.6199ZM1.49998 30.1199H5.49998V18.3199H1.49998V30.1199ZM22.4 32.1199L34.4 28.4199C34.4 27.8533 34.2586 27.3953 33.976 27.0459C33.692 26.6953 33.3 26.5199 32.8 26.5199H23.5C22.6333 26.5199 21.75 26.4619 20.85 26.3459C19.95 26.2286 19.1666 26.0533 18.5 25.8199L14.5 24.5199L15.1 23.1199L18.8 24.4199C19.5 24.6866 20.2833 24.8699 21.15 24.9699C22.0166 25.0699 23.2333 25.1199 24.8 25.1199C24.8 24.4199 24.6833 23.8699 24.45 23.4699C24.2166 23.0699 23.8666 22.7866 23.4 22.6199L11.7 18.3199H6.89998V27.5199L22.4 32.1199Z" fill="#204E37"/>
<path d="M20.0201 3.7271C21.0648 0.592943 27.8555 0.825102 31.1203 1.33295C31.6282 3.50945 32.1216 8.60245 30.0321 11.5625C27.4204 15.2625 21.5437 12.4331 20.0201 11.7801C18.4966 11.1272 18.7142 7.64479 20.0201 3.7271Z" fill="#1AA23E" stroke="#1AA23E"/>
<path d="M24.9892 14.4463C24.2939 14.4463 23.5231 14.3175 22.6767 14.06C21.8303 13.8037 21.0897 13.4034 20.4548 12.8593L19.0945 14.265C18.9434 14.4161 18.7922 14.4917 18.6411 14.4917C18.4899 14.4917 18.3388 14.4161 18.1877 14.265C18.0365 14.1138 17.9609 13.9627 17.9609 13.8115C17.9609 13.6604 18.0365 13.5092 18.1877 13.3581L19.5933 11.9978C19.0794 11.4839 18.6864 10.7735 18.4144 9.86662C18.1423 8.95974 18.0063 8.15867 18.0063 7.4634C18.0063 5.46828 18.7016 3.80567 20.0921 2.47559C21.4826 1.14551 23.115 0.480469 24.9892 0.480469H31.9721V7.4634C31.9721 9.36783 31.2847 11.0081 29.9099 12.3841C28.5339 13.7589 26.8936 14.4463 24.9892 14.4463ZM24.9892 13.1767C26.5611 13.1767 27.9063 12.6175 29.0248 11.499C30.1433 10.3805 30.7025 9.03531 30.7025 7.4634V1.75009H24.9892C23.4475 1.75009 22.1102 2.29422 20.9772 3.38247C19.843 4.47071 19.2759 5.83103 19.2759 7.4634C19.2759 8.03775 19.389 8.67982 19.6151 9.3896C19.8424 10.1006 20.1223 10.6677 20.4548 11.0909L25.4426 6.10309C25.5938 5.95194 25.7449 5.87637 25.8961 5.87637C26.0472 5.87637 26.1984 5.95194 26.3495 6.10309C26.5007 6.25423 26.5762 6.40538 26.5762 6.55652C26.5762 6.70767 26.5007 6.85881 26.3495 7.00996L21.3617 11.9978C21.8454 12.3907 22.4197 12.6858 23.0848 12.8829C23.7498 13.0788 24.3846 13.1767 24.9892 13.1767Z" fill="#204E37"/>
</svg>
