<svg width="41" height="37" viewBox="0 0 41 37" fill="none" xmlns="http://www.w3.org/2000/svg">
<rect x="0.450012" y="6.41797" width="29.3333" height="29.3333" rx="1" fill="#EAF5E9"/>
<path d="M39.1166 9.08465C39.1166 13.5029 35.5349 17.0847 31.1166 17.0847C26.6984 17.0847 23.1166 13.5029 23.1166 9.08465C23.1166 4.66637 26.6984 1.08465 31.1166 1.08465C42.1166 0.751139 39.45 -3.9154 39.1166 9.08465Z" fill="#1AA23E"/>
<path d="M3.45001 36.1C2.61668 36.1 1.90868 35.808 1.32601 35.224C0.742013 34.6413 0.450012 33.9333 0.450012 33.1V8.3C0.450012 7.46667 0.742013 6.75867 1.32601 6.176C1.90868 5.592 2.61668 5.3 3.45001 5.3L24.1844 5.3V6.7L3.45001 6.7C2.98335 6.7 2.60001 6.85 2.30001 7.15C2.00001 7.45 1.85001 7.83333 1.85001 8.3V33.1C1.85001 33.5667 2.00001 33.95 2.30001 34.25C2.60001 34.55 2.98335 34.7 3.45001 34.7H28.25C28.7167 34.7 29.1 34.55 29.4 34.25C29.7 33.95 29.85 33.5667 29.85 33.1L29.85 16.7H31.25L31.25 33.1C31.25 33.9333 30.958 34.6413 30.374 35.224C29.7914 35.808 29.0834 36.1 28.25 36.1H3.45001ZM7.75001 29.4V18H9.15001V29.4H7.75001ZM15.15 29.4V12H16.55V29.4H15.15ZM22.55 29.4V24H23.95V29.4H22.55ZM31.85 17.4C30.9167 17.4 29.9334 17.2167 28.9 16.85C27.8667 16.4833 26.9333 15.9667 26.1 15.3L24.55 16.7C24.3834 16.8667 24.2167 16.958 24.05 16.974C23.8834 16.9913 23.7167 16.9167 23.55 16.75C23.3834 16.5833 23.3 16.4167 23.3 16.25C23.3 16.0833 23.3834 15.9167 23.55 15.75L25.1 14.25C24.4667 13.2833 23.9833 12.3333 23.65 11.4C23.3167 10.4667 23.15 9.56667 23.15 8.7C23.15 6.2 24.0167 4.12467 25.75 2.474C27.4833 0.824668 29.5167 0 31.85 0H40.55V8.7C40.55 11 39.7254 13.0247 38.076 14.774C36.4254 16.5247 34.35 17.4 31.85 17.4ZM31.85 16C33.85 16 35.5667 15.2833 37 13.85C38.4334 12.4167 39.15 10.7 39.15 8.7V1.4H31.85C29.8834 1.4 28.1753 2.09133 26.726 3.474C25.2753 4.858 24.55 6.6 24.55 8.7C24.55 9.43333 24.7167 10.2167 25.05 11.05C25.3833 11.8833 25.7333 12.6 26.1 13.2L32.45 6.85C32.6167 6.68333 32.7834 6.6 32.95 6.6C33.1167 6.6 33.2834 6.68333 33.45 6.85C33.6167 7.01667 33.7 7.19133 33.7 7.374C33.7 7.558 33.6167 7.73333 33.45 7.9L27.15 14.2C27.75 14.7667 28.4754 15.208 29.326 15.524C30.1754 15.8413 31.0167 16 31.85 16Z" fill="#204E37"/>
</svg>
