<svg width="45" height="44" viewBox="0 0 45 44" fill="none" xmlns="http://www.w3.org/2000/svg">
<path d="M11.2013 31.4926L11.1422 31.2816L10.947 31.1821L5.78824 28.5501L7.84275 23.0376L7.91785 22.8361L7.82325 22.643L5.27129 17.4337L10.086 14.1982L10.2645 14.0783L10.3002 13.8663L11.2772 8.06502L17.0609 8.36503L17.2796 8.37638L17.4363 8.22325L21.613 4.14028L26.1533 7.66631L26.3195 7.79544L26.5281 7.76675L32.2231 6.98323L33.7988 12.6076L33.8579 12.8185L34.053 12.9181L39.2118 15.5501L37.1573 21.0626L37.0822 21.2641L37.1768 21.4572L39.7287 26.6665L34.914 29.9019L34.7356 30.0219L34.6998 30.2339L33.7228 36.0351L27.9392 35.7351L27.7204 35.7238L27.5638 35.8769L23.387 39.9599L18.8468 36.4338L18.6805 36.3047L18.4719 36.3334L12.777 37.1169L11.2013 31.4926Z" fill="#EAF5E9" stroke="#204E37"/>
<path d="M18.2093 19.405L22.7693 13.165L27.3401 19.405H24.9293L29.6258 26.365H16.0493L20.3693 19.405H18.2093Z" fill="#1AA23E"/>
<path d="M23.5501 31.365H21.9086V26.6963H15.0493L19.7394 19.6933H17.453L22.7293 12.165L28.0057 19.6933H25.7192L30.4093 26.6963H23.5501V31.365ZM16.5736 25.8793H21.2637H19.0359H26.4228H24.195H28.885H16.5736ZM16.5736 25.8793H28.885L24.195 18.8763H26.4228L22.7293 13.624L19.0359 18.8763H21.2637L16.5736 25.8793Z" fill="#204E37"/>
</svg>
