<svg width="156" height="123" viewBox="0 0 156 123" fill="none" xmlns="http://www.w3.org/2000/svg">
<path d="M104.073 31.1554C102.561 30.8632 100.951 30.9119 99.5076 30.4443C98.3271 30.0644 97.332 29.1584 96.2491 28.4765C96.9906 27.4342 97.5467 26.1483 98.5125 25.408C101.215 23.3428 104.298 21.7452 106.854 19.5339C112.054 15.0236 112.297 7.62008 107.683 3.15849C103.059 -1.31283 95.654 -0.89396 91.2834 4.36642C89.0103 7.09403 87.2836 10.2697 85.1568 13.1337C84.5714 13.9228 83.1764 14.9262 82.5715 14.7021C81.674 14.3709 80.8447 13.124 80.552 12.1011C80.0155 10.2503 80.035 8.24351 79.5862 6.36341C78.5326 1.97001 74.7864 -0.484813 70.2597 0.0801915C66.3574 0.567264 63.3526 4.01574 63.2745 8.21431C63.216 11.1367 63.2648 14.0592 63.2648 16.9816H63.2843C63.2843 19.982 63.3136 22.9921 63.2843 25.9925C63.255 28.5934 61.8014 30.4053 59.7722 30.4735C57.5479 30.5514 56.0357 28.8467 55.9967 26.0509C55.9479 22.9629 56.026 19.8846 56.0162 16.7965C56.0162 13.4455 54.8748 10.562 52.1529 8.49679C48.7481 5.91531 44.9922 5.43797 41.1386 7.30833C37.3631 9.13972 35.1095 12.3349 35.5095 16.4945C36.368 25.2813 37.646 34.0291 38.807 42.777C39.1582 45.4656 38.046 47.4626 35.8119 47.7549C33.6657 48.0374 32.1047 46.5956 31.6852 43.9362C31.3243 41.6957 31.0804 39.4357 30.6024 37.2243C29.7829 33.4349 27.5683 30.8047 23.7148 29.8014C19.7832 28.7785 16.476 29.9377 13.8321 32.9186C11.2468 35.8313 10.9542 39.0752 12.4761 42.6503C14.9345 48.3978 17.2857 54.1842 19.6271 59.9706C20.6807 62.5716 20.0563 64.4517 18.0271 65.3577C16.1247 66.2052 14.476 65.494 13.1297 63.0489C11.7932 60.633 9.74445 59.6589 7.09087 59.766C4.47632 59.8732 2.49589 61.1591 1.64714 63.575C0.84716 65.835 0.164254 68.2411 0.0276732 70.618C-0.284512 75.9758 2.08615 80.5446 5.04215 84.8113C7.16892 87.8799 9.45178 90.8413 11.6859 93.8222C12.6224 95.0593 12.5834 96.014 11.3639 97.144C8.85667 99.4625 6.50552 101.937 4.08609 104.343C3.22758 105.2 2.34955 106.281 3.60805 107.168C4.20316 107.587 5.83237 107.334 6.45675 106.778C8.83716 104.694 11.1493 102.502 13.1882 100.086C14.8077 98.1766 16.1345 98.313 17.8515 99.745C19.4124 101.041 21.0026 102.326 22.7099 103.417C25.9098 105.473 29.0609 107.684 32.495 109.292C37.3436 111.571 42.4069 111.571 47.3628 109.282C49.6945 108.201 51.109 106.457 51.2261 103.836C51.3432 101.167 50.2798 99.1507 47.9091 97.7967C45.3824 96.3549 44.68 94.6502 45.6751 92.6922C46.6506 90.7634 48.553 90.2665 51.1286 91.3283C56.9137 93.7053 62.7184 96.0335 68.4646 98.5078C72.084 100.066 75.3034 99.5501 78.1911 97.0076C81.1276 94.4261 82.2008 91.0848 81.2837 87.3246C80.3569 83.5157 77.7619 81.1875 73.9181 80.3887C71.8499 79.9601 69.7426 79.736 67.6549 79.4146C64.3867 78.908 62.8648 77.4078 63.2257 75.0699C63.5965 72.7124 65.5086 71.7091 68.7378 72.1962C68.9817 72.2351 69.2158 72.3033 69.4597 72.3325C77.4204 73.4041 85.3812 74.5438 93.3517 75.5082C96.3662 75.8687 99.1661 74.9919 101.459 72.8878C104.639 69.9653 105.761 65.4648 104.142 61.5195C102.386 57.243 99.0003 55.1389 94.4541 54.9635C91.0493 54.8369 87.625 54.9538 84.2105 54.9245C82.0935 54.9051 80.8935 53.6582 80.552 51.7001C80.2399 49.9272 81.8008 48.1445 83.83 47.8231C84.63 47.6964 85.4495 47.7256 86.2592 47.7256C91.7907 47.7256 97.3125 47.7938 102.844 47.6964C107.254 47.6185 110.629 44.3648 110.971 40.1468C111.322 35.7436 108.493 32.0224 104.093 31.1846L104.073 31.1554Z" fill="#EAF5E9"/>
<path d="M150.446 59.6998C149.234 59.4681 147.943 59.5067 146.785 59.136C145.839 58.8348 145.041 58.1166 144.173 57.576C144.767 56.7496 145.213 55.7302 145.987 55.1432C148.154 53.506 150.626 52.2394 152.675 50.4863C156.845 46.9106 157.04 41.0411 153.34 37.504C149.633 33.9592 143.696 34.2913 140.191 38.4617C138.369 40.6241 136.984 43.1418 135.279 45.4123C134.81 46.0379 133.691 46.8334 133.206 46.6557C132.486 46.3932 131.821 45.4046 131.587 44.5937C131.157 43.1263 131.172 41.5354 130.812 40.0449C129.968 36.5618 126.964 34.6156 123.334 35.0636C120.205 35.4497 117.796 38.1837 117.734 41.5122C117.687 43.8291 117.726 46.146 117.726 48.4629H117.741C117.741 50.8416 117.765 53.228 117.741 55.6066C117.718 57.6687 116.552 59.1051 114.925 59.1592C113.142 59.221 111.93 57.8695 111.898 55.653C111.859 53.2048 111.922 50.7643 111.914 48.3162C111.914 45.6595 110.999 43.3735 108.816 41.7362C106.086 39.6896 103.075 39.3112 99.985 40.794C96.9578 42.2459 95.1509 44.7791 95.4716 48.0768C96.16 55.0429 97.1847 61.9781 98.1155 68.9133C98.3971 71.0448 97.5054 72.628 95.7141 72.8597C93.9932 73.0837 92.7416 71.9407 92.4053 69.8323C92.1159 68.056 91.9203 66.2643 91.537 64.5112C90.88 61.507 89.1043 59.4218 86.0145 58.6263C82.8622 57.8154 80.2104 58.7344 78.0906 61.0976C76.0177 63.4068 75.7831 65.9785 77.0033 68.8129C78.9745 73.3694 80.8597 77.9568 82.737 82.5443C83.5818 84.6063 83.0812 86.0968 81.4542 86.8151C79.9289 87.487 78.6069 86.9232 77.5274 84.9847C76.4558 83.0694 74.8131 82.2971 72.6855 82.3821C70.5891 82.467 69.0012 83.4865 68.3207 85.4018C67.6793 87.1935 67.1317 89.1011 67.0222 90.9855C66.7719 95.2331 68.6727 98.8551 71.0428 102.238C72.7481 104.671 74.5785 107.018 76.3697 109.382C77.1207 110.362 77.0894 111.119 76.1116 112.015C74.1013 113.853 72.2161 115.815 70.2762 117.722C69.5879 118.402 68.8839 119.259 69.8929 119.962C70.3701 120.294 71.6764 120.093 72.177 119.653C74.0857 118 75.9395 116.263 77.5744 114.347C78.8728 112.834 79.9367 112.942 81.3134 114.077C82.5649 115.104 83.84 116.124 85.2088 116.989C87.7745 118.618 90.3011 120.371 93.0545 121.646C96.9422 123.453 101.002 123.453 104.976 121.638C106.845 120.781 107.979 119.398 108.073 117.321C108.167 115.205 107.314 113.606 105.414 112.533C103.388 111.39 102.824 110.038 103.622 108.486C104.405 106.957 105.93 106.563 107.995 107.404C112.634 109.289 117.288 111.135 121.895 113.096C124.797 114.332 127.378 113.923 129.694 111.907C132.048 109.86 132.909 107.211 132.173 104.23C131.43 101.211 129.35 99.3649 126.268 98.7316C124.609 98.3918 122.92 98.2142 121.246 97.9593C118.625 97.5577 117.405 96.3684 117.695 94.5148C117.992 92.6459 119.525 91.8504 122.114 92.2366C122.31 92.2675 122.497 92.3215 122.693 92.3447C129.076 93.1942 135.459 94.0978 141.85 94.8624C144.267 95.1481 146.512 94.4531 148.35 92.7849C150.9 90.468 151.799 86.9 150.501 83.7722C149.093 80.3819 146.379 78.7137 142.733 78.5747C140.003 78.4743 137.258 78.567 134.52 78.5438C132.823 78.5283 131.861 77.5398 131.587 75.9875C131.336 74.5819 132.588 73.1686 134.215 72.9138C134.856 72.8134 135.514 72.8365 136.163 72.8365C140.598 72.8365 145.025 72.8906 149.461 72.8134C152.996 72.7516 155.703 70.1721 155.976 66.8281C156.258 63.3373 153.99 60.3871 150.462 59.723L150.446 59.6998Z" fill="#1AA23E"/>
</svg>
