<svg width="136" height="107" viewBox="0 0 136 107" fill="none" xmlns="http://www.w3.org/2000/svg">
<path d="M0.754776 101.148C2.43659 98.5176 4.16538 95.887 6.12907 93.4538C16.7931 80.2823 29.9939 71.47 47.2819 69.8165C48.3906 69.7132 49.4898 69.5723 51.1811 69.3844C50.2227 68.8771 49.8093 68.6704 49.4053 68.4449C44.6793 65.852 39.6714 63.663 35.2837 60.5909C16.4924 47.4476 7.68874 28.4138 4.06203 6.45825C3.76138 4.61688 4.58819 3.75259 6.45792 4.08141C9.00414 4.52296 11.5597 4.91751 14.0684 5.51877C39.1265 11.5502 58.1526 25.0787 68.4596 49.4111C68.6381 49.8433 68.9576 50.2097 69.3428 50.8015C69.4931 50.266 69.5965 50.0594 69.6059 49.8339C71.0058 27.6153 83.1356 12.2737 101.147 0.746277C103.252 -0.597174 104.248 -0.155645 104.802 2.30578C110.261 26.5161 105.986 48.0207 87.0817 65.3634C83.7557 68.4073 80.082 71.066 76.4459 73.9972C76.9438 74.5233 77.4512 75.0964 77.9962 75.6413C86.7435 84.3878 95.4908 93.1343 104.238 101.881C104.68 102.322 105.328 102.708 105.497 103.243C105.723 103.957 105.563 104.784 105.572 105.573C104.792 105.573 103.937 105.742 103.252 105.488C102.65 105.272 102.218 104.568 101.72 104.07C93.0855 95.4361 84.4416 86.8116 75.8352 78.1403C75.2432 77.539 74.9426 76.6559 74.3037 75.5661C73.2138 77.1257 72.7346 77.8209 72.246 78.5067C54.2722 104.098 30.4637 111.144 2.27686 104.821C-0.156601 104.277 -0.598198 103.253 0.754776 101.139V101.148Z" fill="#EAF5E9"/>
<path d="M70.4656 103.39C71.5029 101.768 72.5693 100.145 73.7805 98.6444C80.3584 90.5199 88.5009 85.0843 99.1645 84.0644C99.8484 84.0007 100.526 83.9138 101.57 83.7979C100.978 83.4849 100.723 83.3575 100.474 83.2184C97.5592 81.619 94.4702 80.2687 91.7638 78.3738C80.1729 70.2667 74.7426 58.5263 72.5056 44.9836C72.3201 43.8478 72.8301 43.3147 73.9834 43.5175C75.554 43.7899 77.1303 44.0332 78.6777 44.4041C94.1341 48.1244 105.87 56.4691 112.227 71.4779C112.338 71.7445 112.535 71.9705 112.772 72.3355C112.865 72.0052 112.929 71.8778 112.934 71.7387C113.798 58.0337 121.28 48.5707 132.39 41.4603C133.688 40.6316 134.302 40.904 134.644 42.4223C138.011 57.3557 135.374 70.6202 123.714 81.3176C121.662 83.1952 119.396 84.8351 117.154 86.6431C117.461 86.9677 117.774 87.3211 118.11 87.6573C123.505 93.0523 128.901 98.4474 134.296 103.842C134.569 104.115 134.969 104.352 135.073 104.683C135.212 105.123 135.114 105.633 135.119 106.12C134.638 106.12 134.111 106.224 133.688 106.068C133.317 105.934 133.05 105.5 132.743 105.193C127.417 99.8671 122.085 94.5474 116.777 89.1987C116.412 88.8278 116.226 88.2831 115.832 87.6109C115.16 88.5728 114.864 89.0017 114.563 89.4247C103.476 105.21 88.7907 109.556 71.4044 105.656C69.9034 105.32 69.631 104.688 70.4656 103.385V103.39Z" fill="#1AA23E"/>
</svg>
