<svg width="130" height="142" viewBox="0 0 130 142" fill="none" xmlns="http://www.w3.org/2000/svg">
<path d="M117.254 55.327C113.867 53.0349 113.867 52.7954 117.277 50.6059C129.706 42.6349 133.629 25.6094 125.909 13.2138C114.95 -4.3932 90.0679 -4.4046 78.8468 13.1796C77.2617 15.6656 76.6459 15.7112 75.0723 13.4191C64.1705 -2.48881 43.6556 -2.92214 32.0582 12.5068C26.9608 19.2919 23.8363 27.0121 21.5328 35.0972C14.8389 58.5884 14.3144 82.4673 17.1538 106.54C17.4047 108.638 17.0284 110.075 15.4775 111.558C10.7451 116.096 6.18367 120.795 1.54244 125.424C0.424894 126.542 -0.806692 127.796 0.698572 129.267C2.1012 130.624 3.26437 129.404 4.30208 128.355C9.06875 123.588 13.7898 118.765 18.6819 114.123C19.617 113.234 21.3161 112.641 22.6047 112.721C31.317 113.257 40.0065 114.009 48.2854 114.659C56.6214 114.055 64.5012 113.702 72.324 112.835C77.8775 112.219 83.4082 111.17 88.8477 109.881C99.3389 107.384 109.488 103.906 118.132 97.1322C132.443 85.9112 131.987 65.248 117.265 55.3156L117.254 55.327Z" fill="#204E37"/>
<path d="M122.799 98.7958C120.866 97.4876 120.866 97.3509 122.812 96.1013C129.906 91.5518 132.145 81.8344 127.739 74.7596C121.484 64.7103 107.283 64.7038 100.878 74.7401C99.9737 76.1589 99.6223 76.185 98.7241 74.8768C92.502 65.7973 80.7933 65.55 74.1742 74.3561C71.2649 78.2287 69.4816 82.635 68.1669 87.2496C64.3464 100.657 64.0471 114.286 65.6677 128.026C65.8108 129.223 65.5961 130.044 64.7109 130.89C62.0099 133.48 59.4065 136.162 56.7576 138.804C56.1198 139.442 55.4168 140.158 56.276 140.997C57.0765 141.772 57.7404 141.076 58.3326 140.477C61.0532 137.756 63.7477 135.003 66.5398 132.354C67.0735 131.846 68.0433 131.508 68.7787 131.554C73.7512 131.859 78.7106 132.289 83.4357 132.66C88.1934 132.315 92.6908 132.113 97.1556 131.619C100.325 131.267 103.482 130.668 106.586 129.933C112.574 128.508 118.367 126.522 123.3 122.656C131.468 116.252 131.208 104.458 122.805 98.7893L122.799 98.7958Z" fill="#1AA23E"/>
</svg>
