<svg width="137" height="121" viewBox="0 0 137 121" fill="none" xmlns="http://www.w3.org/2000/svg">
<path d="M113.791 2.92536C114.231 0.465356 113.301 -0.354622 110.571 0.135378C99.9608 2.03538 89.6408 4.90538 79.7908 9.32538C71.5408 13.0254 63.8408 17.5954 57.4308 24.0554C57.0608 23.8154 56.8308 23.7154 56.6608 23.5454C48.4508 14.9854 38.5008 9.01536 27.7608 4.24536C25.2708 3.14536 24.2108 3.56537 24.0708 5.93537C23.7108 12.0754 23.1408 18.2454 23.4408 24.3654C23.7408 30.4654 25.0108 36.5254 25.8908 42.8854C25.4108 43.0654 24.5708 43.3754 23.7208 43.6754C15.7208 46.5154 8.4608 50.7154 1.6808 55.7654C-0.459199 57.3554 -0.559198 58.3854 1.4008 59.8454C10.4408 66.5754 20.1808 71.8854 31.3408 74.2254C32.7808 74.5254 34.2508 74.7354 36.1508 75.0654C35.2508 76.0254 34.6608 76.6854 34.0308 77.3154C23.3708 87.9854 12.7108 98.6454 2.04079 109.305C1.57079 109.775 0.89078 110.175 0.69078 110.745C0.43078 111.505 0.550778 112.395 0.500778 113.225C1.40078 113.215 2.3108 113.305 3.1808 113.135C3.5908 113.055 3.91079 112.485 4.26079 112.135C11.6808 104.715 19.1108 97.2954 26.5208 89.8554C30.4508 85.9054 34.3408 81.9154 38.7908 77.3854C40.5008 90.9454 46.3008 101.865 53.7208 112.075C55.4108 114.405 56.6308 114.545 58.0608 112.165C61.9008 105.755 65.5708 99.2354 69.2008 92.6954C70.0708 91.1254 70.5308 89.3254 71.2008 87.5954C71.7608 87.6654 72.1808 87.6654 72.5708 87.7754C83.9708 91.1154 95.5708 91.1654 107.251 89.9654C110.301 89.6554 110.771 88.8254 109.581 86.0754C106.291 78.4754 102.311 71.2654 97.1308 64.7854C94.8608 61.9554 92.3708 59.2954 90.1108 56.7054C92.9308 52.9554 95.9208 49.4754 98.3708 45.6354C106.701 32.5754 111.051 18.0154 113.781 2.90537L113.791 2.92536ZM83.4608 73.6254C83.4008 73.5054 83.3508 73.3854 83.3008 73.2654C83.2008 73.0154 83.1108 72.7454 83.0108 72.4854C83.1008 72.7454 83.2008 73.0154 83.3008 73.2654C83.3508 73.3953 83.4008 73.5154 83.4608 73.6254Z" fill="#204E37"/>
<path d="M136.933 50.2811C137.215 48.7258 136.619 48.2074 134.869 48.5172C128.069 49.7184 121.454 51.5328 115.141 54.3272C109.853 56.6663 104.918 59.5555 100.81 63.6395C100.573 63.4878 100.425 63.4245 100.316 63.3171C95.0541 57.9054 88.6767 54.1312 81.793 51.1156C80.1971 50.4201 79.5177 50.6857 79.428 52.184C79.1972 56.0657 78.8319 59.9664 79.0242 63.8355C79.2164 67.6919 80.0304 71.5231 80.5945 75.5439C80.2868 75.6577 79.7484 75.8536 79.2036 76.0433C74.0761 77.8387 69.4229 80.494 65.0773 83.6866C63.7057 84.6918 63.6416 85.343 64.8978 86.266C70.6919 90.5207 76.9347 93.8777 84.0876 95.3571C85.0106 95.5467 85.9527 95.6795 87.1705 95.8881C86.5937 96.495 86.2155 96.9123 85.8117 97.3106C78.9793 104.056 72.1469 110.795 65.308 117.535C65.0068 117.832 64.5709 118.085 64.4427 118.445C64.2761 118.926 64.353 119.488 64.321 120.013C64.8978 120.007 65.4811 120.064 66.0387 119.956C66.3015 119.905 66.5066 119.545 66.7309 119.324C71.4867 114.633 76.2489 109.942 80.9983 105.238C83.5172 102.741 86.0104 100.219 88.8626 97.3548C89.9586 105.927 93.6761 112.831 98.4318 119.286C99.515 120.759 100.297 120.847 101.214 119.343C103.675 115.29 106.027 111.168 108.354 107.034C108.911 106.041 109.206 104.903 109.635 103.81C109.994 103.854 110.264 103.854 110.514 103.923C117.82 106.035 125.255 106.067 132.741 105.308C134.696 105.112 134.998 104.587 134.235 102.849C132.126 98.0439 129.575 93.4857 126.255 89.3891C124.8 87.5999 123.204 85.9183 121.756 84.2809C123.563 81.9101 125.48 79.7101 127.05 77.2824C132.389 69.0259 135.177 59.821 136.927 50.2684L136.933 50.2811ZM117.493 94.9777C117.455 94.9019 117.423 94.826 117.391 94.7501C117.327 94.5921 117.269 94.4214 117.205 94.257C117.263 94.4214 117.327 94.5921 117.391 94.7501C117.423 94.8323 117.455 94.9082 117.493 94.9777Z" fill="#1AA23E"/>
</svg>
