<?xml version="1.0" encoding="UTF-8"?>
<!-- Created with Inkscape (http://www.inkscape.org/) -->
<svg version="1.1" viewBox="0 0 156.94 94.324" xmlns="http://www.w3.org/2000/svg">
 <g transform="translate(-8.6496 -14.664)" fill="#fff" stroke-width=".26458">
  <g aria-label="DATA">
   <path d="m8.6496 62.642v-47.978h2.7517v47.978zm13.476-2.2578q6.6322 0 11.359-2.54 4.7272-2.6106 7.2672-7.4083 2.54-4.8683 2.54-11.783 0-6.8439-2.54-11.712-2.54-4.8683-7.2672-7.4083-4.7272-2.6106-11.359-2.6106h-11.712v-2.2578h11.712q7.4083 0 12.771 2.8928 5.3622 2.8222 8.255 8.1844 2.8928 5.3622 2.8928 12.912t-2.8928 12.912q-2.8928 5.3622-8.255 8.255-5.3622 2.8222-12.771 2.8222h-11.712v-2.2578z"/>
   <path d="m57.999 48.884v-2.2578h26.247v2.2578zm31.609 13.758-17.286-42.192-1.27-3.3161h0.21167l-1.27 3.3867-17.286 42.122h-2.6811l19.614-47.978h3.175l19.685 47.978z"/>
   <path d="m107.15 62.642v-47.978h2.7517v47.978zm-17.568-45.649v-2.3283h37.959v2.3283z"/>
   <path d="m132.55 48.884v-2.2578h26.247v2.2578zm31.477 12.832-17.154-41.266-1.27-3.3161h0.21167l-1.27 3.3867-16.823 41.196-1.764-2.399 18.234-44.653h3.175l18.221 44.52z"/>
  </g>
  <g aria-label="CITY">
   <path d="m62.552 72.934h-2.8222q-1.6228-5.1506-5.8561-7.9728-4.2333-2.8928-9.5956-2.8928-5.5739 0-9.5956 2.7517-3.9511 2.6811-6.0678 7.6906t-2.1167 11.924 2.1167 11.924q2.1167 4.9389 6.0678 7.62 4.0217 2.6811 9.5956 2.6811 5.2211 0 9.2428-2.7517 4.0922-2.7517 6.0678-7.9728h2.8928q-1.4817 4.2333-4.2333 7.1967-2.6811 2.8928-6.2794 4.3744-3.5278 1.4817-7.7611 1.4817-6.35 0-11.007-2.9633-4.5861-2.9633-7.0556-8.4667-2.4694-5.5033-2.4694-13.123t2.4694-13.123q2.54-5.5739 7.1261-8.5372 4.6567-3.0339 11.077-3.0339 4.2333 0 7.9022 1.5522 3.6689 1.4817 6.35 4.445t3.9511 7.1967z"/>
   <path d="m72.918 108.35v-47.978h2.7517v47.978z"/>
   <path d="m102.1 108.35v-47.978h2.7517v47.978zm-17.568-45.649v-2.3283h37.959v2.3283z"/>
   <path d="m144.33 108.35v-18.556h2.7517v18.556zm-16.06-50.094 15.284 24.977 2.3989 4.3744h-0.28222l2.3989-4.3744 15.553-25.307 1.9667 1.2568-18.508 30.612h-2.7517l-18.371-30.48z"/>
  </g>
 </g>
</svg>
