<?xml version="1.0" encoding="UTF-8"?>
<svg width="216.99" height="90.44" version="1.1" viewBox="0 0 216.99 90.44" xmlns="http://www.w3.org/2000/svg">
 <g transform="translate(60.988 27.3)" fill="#fff" aria-label="יער עירוני דיגיטלי">
  <path d="m44.963-15.618h-3.914v-4.75h9.196v12.73l-5.282 0.342z"/>
  <path d="m19.066 1.976q-0.456-3.268-0.608-4.75 4.104-0.76 6.156-1.33l-3.914-11.97-1.254-2.546q2.09-1.216 4.712-2.204 0.722 0.836 1.14 1.862 0.418 0.988 0.874 2.508l3.154 10.374q1.558-1.178 2.204-3.116 0.684-1.938 0.684-5.168 0-2.546-0.456-5.434 2.128-0.57 5.206-0.798 0.38 2.09 0.38 5.13 0 5.776-1.672 9.082-1.634 3.306-5.51 5.206-3.876 1.862-11.096 3.154z"/>
  <path d="m10.374-13.186q0-1.102-0.608-1.748-0.608-0.684-1.672-0.684h-7.144v-4.75h8.246q3.002 0 4.674 1.71 1.71 1.71 1.71 4.75v13.756l-5.206 0.342z"/>
  <path d="m32.432 32.976q-0.456-3.268-0.608-4.75 4.104-0.76 6.156-1.33l-3.914-11.97-1.254-2.546q2.09-1.216 4.712-2.204 0.722 0.836 1.14 1.862 0.418 0.988 0.874 2.508l3.154 10.374q1.558-1.178 2.204-3.116 0.684-1.938 0.684-5.168 0-2.546-0.456-5.434 2.128-0.57 5.206-0.798 0.38 2.09 0.38 5.13 0 5.776-1.672 9.082-1.634 3.306-5.51 5.206-3.876 1.862-11.096 3.154z"/>
  <path d="m24.065 15.382h-3.914v-4.75h9.196v12.73l-5.282 0.342z"/>
  <path d="m11.809 17.814q0-1.102-0.608-1.748-0.608-0.684-1.672-0.684h-7.144v-4.75h8.246q3.002 0 4.674 1.71 1.71 1.71 1.71 4.75v13.756l-5.206 0.342z"/>
  <path d="m-6.7631 15.382h-3.724v-4.75h8.93v20.216l-5.206 0.342z"/>
  <path d="m-25.455 26.25h5.776v-10.868h-4.37v-4.75h9.576v20.368h-10.982z"/>
  <path d="m-33.974 15.382h-3.914v-4.75h9.196v12.73l-5.282 0.342z"/>
  <path d="m42.48 46.382h-9.196v-4.75h18.088l-0.532 4.75h-3.154v15.466l-5.206 0.342z"/>
  <path d="m24.196 46.382h-3.914v-4.75h9.196v12.73l-5.282 0.342z"/>
  <path d="m4.7537 62.798q0.076-2.584 0.228-5.016 4.142-1.71 7.22-3.42l-0.836-7.98h-4.674v-4.75h9.234l2.014 19.532q-2.318 0.95-4.56 1.444l-0.418-3.61q-3.078 1.71-7.79 3.8z"/>
  <path d="m-3.0665 46.382h-3.914v-4.75h9.196v12.73l-5.282 0.342z"/>
  <path d="m-25.359 62.228q-0.874 0-2.394-0.076l-0.95-17.898v-2.318l4.978-0.342 0.912 15.618q2.242 0 3.99-0.95 1.748-0.988 2.736-2.736t0.988-4.028q0-3.42-2.698-3.42-0.874 0-2.28 0.494l-1.216-4.066q0.95-0.57 2.204-0.912 1.292-0.38 2.584-0.38 3.04 0 4.788 2.014 1.748 1.976 1.748 5.548 0 3.724-1.862 6.954-1.824 3.192-4.902 4.75-1.634 0.836-3.876 1.292-2.204 0.456-4.75 0.456z"/>
  <path d="m-43.274 63.14q-1.368-1.748-2.926-4.256 1.254-1.216 2.85-2.66 2.09-1.938 3.04-2.926 0.988-1.026 1.52-2.052t0.532-2.242v-2.622h-9.69v-10.07h5.206v5.32h9.69v6.612q0 2.774-0.988 4.902-0.988 2.09-2.698 3.876-1.672 1.786-5.13 4.864z"/>
  <path d="m-57.074 46.382h-3.914v-4.75h9.196v12.73l-5.282 0.342z"/>
 </g>
 <g transform="translate(-29.812 -49.3)" fill='#fff'>
  <path class="cls-2" d="m228.3 110.7h-12.8c-1.1 0-2-0.9-2-2s0.9-2 2-2h12.8c7.9 0 14.3-6.3 14.3-14.1s-5.1-12.8-12-13.9c-0.6 0-1.1-0.5-1.4-1s-0.3-1.2 0-1.8c0.6-1.3 0.9-2.7 0.9-4.1 0-5.7-4.7-10.3-10.4-10.3s-5.6 1.1-7.5 3.2c-0.5 0.5-1.1 0.7-1.8 0.6s-1.2-0.6-1.5-1.2c-2.8-6.6-9.3-10.8-16.5-10.8s-17.9 7.9-17.9 17.6 0.1 2.4 0.4 3.6c0.2 1.1-0.4 2.1-1.5 2.3-6.8 1.7-11.6 7.7-11.6 14.7s6.9 15.1 15.4 15.1h5.3c1.1 0 2 0.9 2 2s-0.9 2-2 2h-5.3c-10.7 0-19.4-8.6-19.4-19.1s5.2-15.3 12.9-18c-0.1-0.8-0.2-1.7-0.2-2.6 0-11.9 9.8-21.6 21.9-21.6s15.1 4.2 19 10.9c2.4-1.7 5.3-2.6 8.3-2.6 8 0 14.4 6.4 14.4 14.3s-0.1 2.3-0.4 3.4c7.7 2.2 13.1 9.2 13.1 17.3s-8.2 18.1-18.3 18.1z"/>
  <path class="cls-2" d="m192.2 138.4h-7.2c-1.1 0-2-0.9-2-2s0.9-2 2-2h5.2v-29.1l-7.1-7.1c-0.8-0.8-0.8-2 0-2.8s2-0.8 2.8 0l7.7 7.7c0.4 0.4 0.6 0.9 0.6 1.4v32c0 1.1-0.9 2-2 2z"/>
  <path class="cls-2" d="m215.1 138.4h-7.3c-1.1 0-2-0.9-2-2v-37c0-0.5 0.2-1 0.6-1.4l8.9-8.8c0.8-0.8 2.1-0.8 2.8 0 0.8 0.8 0.8 2.1 0 2.8l-8.3 8.2v34.1h5.3c1.1 0 2 0.9 2 2s-0.9 2-2 2z"/>
  <path class="cls-2" d="m220.3 93.1c-3.7 0-6.8-3-6.8-6.7s3-6.7 6.8-6.7 6.8 3 6.8 6.7-3 6.7-6.8 6.7zm0-9.4c-1.5 0-2.8 1.2-2.8 2.7s1.2 2.7 2.8 2.7 2.8-1.2 2.8-2.7-1.2-2.7-2.8-2.7z"/>
  <path class="cls-2" d="m199.6 84.3c-3.7 0-6.8-3-6.8-6.7s3-6.7 6.8-6.7 6.8 3 6.8 6.7-3 6.7-6.8 6.7zm0-9.4c-1.5 0-2.8 1.2-2.8 2.7s1.2 2.7 2.8 2.7 2.8-1.2 2.8-2.7-1.2-2.7-2.8-2.7z"/>
  <path class="cls-2" d="m180.7 99.8c-3.7 0-6.8-3-6.8-6.7s3-6.7 6.8-6.7 6.8 3 6.8 6.7-3 6.7-6.8 6.7zm0-9.4c-1.5 0-2.8 1.2-2.8 2.7s1.2 2.7 2.8 2.7 2.8-1.2 2.8-2.7-1.2-2.7-2.8-2.7z"/>
  <path class="cls-2" d="m200.1 138.4c-1.1 0-2-0.9-2-2v-53.8c0-1.1 0.9-2 2-2s2 0.9 2 2v53.8c0 1.1-0.9 2-2 2z"/>
 </g>
</svg>
