<svg width="244" height="35" viewBox="0 0 244 35" fill="none" xmlns="http://www.w3.org/2000/svg">
<path d="M3.63672 18.9648V13.8086H1.43359V10.9492H7.31641V18.9648H3.63672ZM15.7773 25V15.7188C15.7773 15.0938 15.6016 14.6211 15.25 14.3008C14.9062 13.9727 14.4023 13.8086 13.7383 13.8086H9.49609V10.9492H14.0078C15.7109 10.9492 17.043 11.3867 18.0039 12.2617C18.9727 13.1289 19.457 14.3438 19.457 15.9062V25H15.7773ZM23.1367 25V13.8086H21.9062V10.9492H26.8164V25H23.1367ZM29.3359 25V22.1289H36.1211L39.7891 22.0117L41.4297 22.2578V25H29.3359ZM36.1211 24.1445V15.9297C36.1211 15.2188 35.9375 14.6875 35.5703 14.3359C35.2031 13.9844 34.6406 13.8086 33.8828 13.8086H30.1094V10.9492H34.1523C35.9336 10.9492 37.3164 11.3984 38.3008 12.2969C39.293 13.1875 39.7891 14.4531 39.7891 16.0938V24.1445H36.1211ZM44.6055 18.9648V13.8086H42.4023V10.9492H48.2852V18.9648H44.6055ZM51.5547 25V22.1289H57.9414L50.3828 10.9492H54.4844L58.2344 16.9375L62.6641 23.3477V25H51.5547ZM59.0195 19.7734L56.7578 16.8438L59.5 10.9492H63.6133L59.0195 19.7734ZM76.4688 25.3516C75.6484 25.3516 74.7695 25.2734 73.832 25.1172C72.9023 24.9688 71.9219 24.6992 70.8906 24.3086L71.6523 21.625C72.4883 21.9453 73.2617 22.1836 73.9727 22.3398C74.6836 22.4961 75.3359 22.5781 75.9297 22.5859C77.0625 22.5859 77.9609 22.3008 78.625 21.7305C79.2969 21.1523 79.6328 20.3047 79.6328 19.1875V10.9492H83.3125V19C83.3125 20.3828 83.0234 21.5469 82.4453 22.4922C81.8672 23.4375 81.0625 24.1523 80.0312 24.6367C79.0078 25.1133 77.8203 25.3516 76.4688 25.3516ZM71.5117 10.9492H75.2148L77.2773 20.8633C77.3789 21.3164 77.5078 21.7266 77.6641 22.0938C77.8203 22.4531 78.0586 22.7734 78.3789 23.0547L75.6133 23.043C75.2148 22.8477 74.8242 22.5195 74.4414 22.0586C74.0586 21.5977 73.8008 21.0781 73.668 20.5L71.5117 10.9492ZM85.9375 10.9492H98.0312V13.8086H95.5703V25H91.8906V13.8086H85.9375V10.9492ZM101.629 18.9648V13.8086H99.4258V10.9492H105.309V18.9648H101.629ZM107.84 13.8086V7H111.52V10.9492H118.059V13.8086H107.84ZM119.324 13.293L114.672 25H110.781L116.547 10.9492H119.324V13.293ZM137.16 25L127.41 10.9492H131.512L141.25 25H137.16ZM127.973 25V20.3477C127.973 18.9102 128.223 17.7852 128.723 16.9727C129.223 16.1523 130.035 15.543 131.16 15.1445L132.461 16.9844C131.836 17.3828 131.523 17.9766 131.523 18.7656V25H127.973ZM141.391 10.9492L136.762 19.8203L134.383 16.9141L137.277 10.9492H141.391ZM145.668 25.2344C145.207 25.2344 144.773 25.207 144.367 25.1523C143.961 25.0977 143.5 25.0156 142.984 24.9062L142.996 22.1406C143.559 22.2188 144.125 22.2578 144.695 22.2578C145.234 22.2578 145.633 22.1133 145.891 21.8242C146.156 21.5273 146.289 21.0703 146.289 20.4531V13.8086H143.816V10.9492H149.969V20.7461C149.969 22.1602 149.59 23.2617 148.832 24.0508C148.074 24.8398 147.02 25.2344 145.668 25.2344ZM152.594 10.9492H164.688V13.8086H162.227V25H158.547V13.8086H152.594V10.9492ZM173.465 25.2812C172.23 25.2812 171.141 25.0078 170.195 24.4609C169.258 23.9141 168.52 23.1445 167.98 22.1523C167.449 21.1602 167.176 20.0078 167.16 18.6953L167.148 17.8281C167.141 17.3672 167.199 16.8906 167.324 16.3984C167.457 15.8984 167.629 15.4336 167.84 15.0039C168.051 14.5664 168.277 14.2227 168.52 13.9727C168.551 13.9414 168.578 13.9102 168.602 13.8789C168.633 13.8477 168.664 13.8203 168.695 13.7969L168.672 13.7383C168.445 13.7773 168.148 13.8438 167.781 13.9375C167.414 14.0312 167.109 14.1094 166.867 14.1719L166.176 11.5C166.809 11.3203 167.512 11.1602 168.285 11.0195C169.059 10.8789 169.848 10.7734 170.652 10.7031C171.465 10.625 172.234 10.5859 172.961 10.5859C174.414 10.5859 175.648 10.8438 176.664 11.3594C177.68 11.875 178.449 12.6328 178.973 13.6328C179.496 14.625 179.758 15.8516 179.758 17.3125V18.6953C179.758 20.0078 179.496 21.1602 178.973 22.1523C178.457 23.1445 177.727 23.9141 176.781 24.4609C175.836 25.0078 174.73 25.2812 173.465 25.2812ZM173.453 22.2461C173.977 22.2461 174.438 22.0977 174.836 21.8008C175.234 21.5039 175.543 21.0938 175.762 20.5703C175.98 20.0391 176.09 19.418 176.09 18.707V17.3711C176.09 16.5586 175.988 15.8711 175.785 15.3086C175.582 14.7461 175.281 14.3203 174.883 14.0312C174.484 13.7344 174 13.5859 173.43 13.5859C172.883 13.5859 172.414 13.7422 172.023 14.0547C171.633 14.3594 171.336 14.8086 171.133 15.4023C170.938 15.9961 170.836 16.7227 170.828 17.582V18.707C170.828 19.418 170.938 20.0391 171.156 20.5703C171.375 21.0938 171.68 21.5039 172.07 21.8008C172.469 22.0977 172.93 22.2461 173.453 22.2461ZM190.762 25V15.9297C190.762 15.2188 190.574 14.6875 190.199 14.3359C189.832 13.9844 189.27 13.8086 188.512 13.8086H182.723V10.9492H188.781C190.578 10.9492 191.969 11.3984 192.953 12.2969C193.938 13.1875 194.43 14.4531 194.43 16.0938V25H190.762ZM182.676 25V20.1836C182.676 19.2148 182.781 18.5078 182.992 18.0625C183.203 17.6172 183.379 17.3164 183.52 17.1602H186.438C186.375 17.4648 186.324 17.832 186.285 18.2617C186.246 18.6914 186.227 19.1992 186.227 19.7852V25H182.676Z" fill="white"/>
<g clip-path="url(#clip0_246_197)">
<path fill-rule="evenodd" clip-rule="evenodd" d="M230.82 13.4053L232.792 11.0848L234.922 8.54086C235.159 8.2582 235.389 7.96239 235.632 7.67973C235.654 7.65939 235.672 7.63453 235.685 7.60679C235.697 7.57905 235.704 7.54902 235.704 7.51866C235.704 7.4883 235.697 7.45828 235.685 7.43053C235.672 7.40279 235.654 7.37795 235.632 7.35761C234.914 6.51146 234.5 5.44928 234.455 4.34036C234.455 4.10371 234.455 3.86707 234.455 3.63042C234.455 3.39378 234.574 3.38719 234.758 3.47265C235.778 3.94536 236.745 4.52488 237.643 5.20149C238.986 6.21977 240.163 7.43929 241.134 8.81694C241.17 8.86749 241.203 8.92017 241.233 8.9747C241.237 9.02281 241.237 9.0712 241.233 9.11932C240.911 9.19262 240.587 9.24967 240.26 9.29023C239.157 9.39349 238.049 9.16455 237.078 8.63288C237.033 8.62208 236.986 8.62243 236.942 8.63388C236.897 8.64534 236.856 8.66757 236.822 8.69862C236.296 9.30339 235.776 9.92129 235.257 10.5392L233.127 13.0832C232.786 13.4907 232.47 13.8983 232.115 14.3124C232.095 14.3488 232.085 14.3894 232.085 14.4307C232.085 14.472 232.095 14.5127 232.115 14.5491C232.499 15.0393 232.811 15.5816 233.042 16.1596C233.073 16.1934 233.112 16.2193 233.156 16.2353C233.199 16.2513 233.246 16.2569 233.292 16.2516C234.238 16.0938 235.178 15.9229 236.118 15.7586L240.253 15.0355C240.647 14.9698 240.628 14.9763 240.654 14.5688C240.702 13.3796 241.151 12.2417 241.929 11.3412C242.008 11.2491 242.081 11.144 242.166 11.0519C242.251 10.9599 242.383 10.9468 242.442 11.1045C242.758 11.9328 243.099 12.7479 243.369 13.5959C243.871 15.3461 244.071 17.1689 243.961 18.9862C243.961 19.2163 243.908 19.4398 243.882 19.7093C243.779 19.6753 243.678 19.6358 243.579 19.591C242.411 19.0023 241.504 17.9991 241.035 16.7775C241.028 16.7344 241.012 16.6933 240.987 16.6572C240.962 16.6211 240.93 16.5907 240.893 16.5682C240.855 16.5457 240.813 16.5316 240.77 16.5269C240.726 16.5222 240.682 16.5269 240.641 16.5408C238.288 16.9791 235.932 17.3976 233.574 17.7964C233.536 17.7988 233.499 17.809 233.464 17.8264C233.43 17.8438 233.4 17.868 233.375 17.8975C233.35 17.9271 233.332 17.9613 233.321 17.9982C233.31 18.0351 233.307 18.0738 233.311 18.1119C233.239 18.6707 233.147 19.2294 233.035 19.7816C233.011 19.8409 233.012 19.9073 233.036 19.9664C233.061 20.0254 233.108 20.0724 233.167 20.0971L239.359 23.6731C239.391 23.6989 239.428 23.7175 239.468 23.7279C239.507 23.7383 239.549 23.7401 239.589 23.7333C239.629 23.7264 239.668 23.7111 239.702 23.6883C239.736 23.6654 239.765 23.6356 239.786 23.6008C240.58 22.6887 241.665 22.0782 242.856 21.872C243.053 21.8326 243.251 21.8194 243.514 21.7865C243.454 22.0495 243.415 22.273 243.349 22.4899C242.747 24.5361 241.743 26.4422 240.398 28.0971C240.036 28.5441 239.622 28.9517 239.241 29.379C239.096 29.5367 238.991 29.517 238.905 29.3264C238.519 28.4354 238.38 27.4565 238.504 26.4932C238.557 26.0593 238.682 25.6321 238.781 25.1785L237.466 24.4094L232.818 21.7208C232.227 21.3724 232.233 21.3658 231.754 21.8391C231.026 22.5756 230.09 23.0712 229.071 23.259C229.024 23.2601 228.977 23.2716 228.935 23.2925C228.892 23.3134 228.854 23.3433 228.824 23.3802C228.794 23.417 228.773 23.46 228.761 23.506C228.749 23.5521 228.747 23.6001 228.756 23.6468C228.756 25.9958 228.756 28.3469 228.756 30.7003C228.745 30.7468 228.747 30.7954 228.76 30.8412C228.774 30.887 228.799 30.9285 228.834 30.9617C228.868 30.9948 228.91 31.0184 228.957 31.0302C229.003 31.042 229.052 31.0416 229.098 31.0289H237.196C237.196 31.0289 237.196 31.0815 237.196 31.1144C234.498 33.0061 231.28 34.0165 227.985 34.0071C224.69 33.9977 221.478 32.9689 218.79 31.0618C218.942 31.0618 219.047 31.0618 219.152 31.0618H226.817C227.231 31.0618 227.231 31.0618 227.231 30.6542C227.231 28.3469 227.231 26.0528 227.231 23.7389C227.242 23.6843 227.242 23.6278 227.229 23.5734C227.217 23.5191 227.192 23.4682 227.158 23.4243C227.123 23.3804 227.079 23.3446 227.03 23.3195C226.98 23.2943 226.925 23.2804 226.869 23.2787C225.789 23.0702 224.81 22.5054 224.089 21.6748C224.058 21.6229 224.016 21.5786 223.965 21.545C223.915 21.5115 223.858 21.4895 223.798 21.4807C223.739 21.4719 223.678 21.4765 223.62 21.4941C223.562 21.5118 223.509 21.5421 223.464 21.5828C221.492 22.7529 219.461 23.9032 217.456 25.0536C217.408 25.0712 217.364 25.0989 217.327 25.1348C217.29 25.1708 217.262 25.2141 217.243 25.262C217.224 25.3099 217.216 25.3613 217.219 25.4126C217.221 25.464 217.235 25.5141 217.259 25.5597C217.654 26.7854 217.598 28.1121 217.101 29.3001C217.056 29.3927 217.005 29.4827 216.95 29.5696C216.628 29.2541 216.293 28.978 216.043 28.669C215.27 27.7904 214.594 26.8318 214.025 25.8095C213.382 24.6434 212.885 23.4026 212.546 22.1152C212.48 21.8786 212.546 21.8326 212.789 21.8654C214.048 22.014 215.213 22.6059 216.076 23.5351C216.371 23.8638 216.385 23.8441 216.733 23.6271L222.472 20.3404C222.971 20.0511 222.958 20.0643 222.833 19.4989C222.737 19.0655 222.669 18.6264 222.629 18.1842C222.634 18.1417 222.63 18.0988 222.617 18.0579C222.605 18.0171 222.584 17.9792 222.556 17.9466C222.529 17.9141 222.495 17.8874 222.456 17.8684C222.418 17.8493 222.376 17.8383 222.334 17.8358L218.278 17.1259C217.318 16.9616 216.358 16.7972 215.399 16.6132C215.351 16.5937 215.3 16.5851 215.249 16.588C215.198 16.5908 215.149 16.605 215.104 16.6296C215.059 16.6542 215.02 16.6885 214.991 16.7301C214.961 16.7716 214.941 16.8192 214.932 16.8695C214.693 17.4966 214.332 18.0703 213.871 18.5577C213.409 19.045 212.856 19.4364 212.243 19.7093C212.191 19.724 212.139 19.735 212.085 19.7422C211.763 16.7362 212.299 13.7004 213.63 10.9862C214.017 11.3085 214.342 11.6982 214.59 12.1366C215.05 12.9391 215.307 13.8416 215.339 14.766C215.336 14.8065 215.34 14.8472 215.353 14.8857C215.366 14.9243 215.387 14.9598 215.414 14.99C215.441 15.0202 215.474 15.0445 215.511 15.0614C215.548 15.0783 215.588 15.0874 215.629 15.0881L220.289 15.9032L222.511 16.2976C222.899 16.3699 222.873 16.3568 223.044 16.0281C223.293 15.5548 223.583 15.0947 223.872 14.6411C223.893 14.6232 223.909 14.601 223.921 14.576C223.932 14.5511 223.938 14.524 223.938 14.4965C223.938 14.469 223.932 14.4419 223.921 14.4169C223.909 14.3919 223.893 14.3698 223.872 14.3519C223.063 13.3987 222.268 12.439 221.466 11.4858L219.211 8.8038C219.191 8.76936 219.163 8.73973 219.13 8.71698C219.098 8.69422 219.06 8.67887 219.021 8.672C218.981 8.66512 218.941 8.66688 218.902 8.67715C218.864 8.68743 218.828 8.70596 218.797 8.73148C217.626 9.37371 216.258 9.55875 214.958 9.25079C214.864 9.22286 214.771 9.18769 214.682 9.14562C214.951 8.7775 215.188 8.4291 215.451 8.10043C216.686 6.55271 218.194 5.24481 219.901 4.24176C220.335 3.98539 220.789 3.76189 221.216 3.53839C221.466 3.41349 221.525 3.46609 221.538 3.7356C221.621 5.0781 221.194 6.40242 220.342 7.44307C220.318 7.46282 220.299 7.48747 220.286 7.51529C220.274 7.54311 220.267 7.57343 220.267 7.60412C220.267 7.63481 220.274 7.66515 220.286 7.69297C220.299 7.72079 220.318 7.74542 220.342 7.76517L223.799 11.8671C224.207 12.3469 224.608 12.8268 225.002 13.3132C225.02 13.3408 225.043 13.3647 225.069 13.3833C225.096 13.402 225.126 13.415 225.158 13.4218C225.19 13.4285 225.223 13.4288 225.255 13.4226C225.287 13.4163 225.317 13.4038 225.344 13.3856C225.85 13.1818 226.363 12.9846 226.883 12.8202C226.969 12.8103 227.047 12.7668 227.102 12.699C227.156 12.6313 227.181 12.5449 227.172 12.4587C227.172 10.101 227.172 7.74108 227.172 5.37899C227.18 5.33224 227.179 5.28418 227.167 5.23814C227.155 5.1921 227.133 5.14917 227.103 5.1123C227.073 5.07543 227.036 5.04551 226.993 5.02459C226.95 5.00368 226.904 4.99225 226.856 4.99113C225.583 4.73447 224.45 4.01562 223.675 2.97307C223.631 2.91658 223.592 2.85727 223.556 2.79557C223.552 2.75405 223.552 2.7122 223.556 2.67067C224.03 2.55892 224.496 2.4406 224.97 2.342C227.37 1.88526 229.842 1.97968 232.2 2.61809C232.431 2.67726 232.444 2.75613 232.273 2.97963C231.491 4.02764 230.348 4.7471 229.065 4.99771C229.017 4.99789 228.969 5.0086 228.926 5.02911C228.882 5.04961 228.844 5.07941 228.813 5.11639C228.783 5.15337 228.76 5.19665 228.748 5.24316C228.736 5.28966 228.734 5.33826 228.743 5.38555C228.743 7.74326 228.743 10.1032 228.743 12.4653C228.729 12.5427 228.746 12.6224 228.791 12.6874C228.835 12.7525 228.902 12.7978 228.979 12.8137C229.558 13.0043 230.123 13.2278 230.695 13.4381L230.82 13.4053Z" fill="white"/>
</g>
<defs>
<clipPath id="clip0_246_197">
<rect width="31.9869" height="32" fill="white" transform="translate(212 2)"/>
</clipPath>
</defs>
</svg>
