<svg width="187" height="33" viewBox="0 0 187 33" fill="none" xmlns="http://www.w3.org/2000/svg">
<path d="M2.67285 17.9473V13.7988H0.90625V12.0498H4.90527V17.9473H2.67285ZM11.6904 22.5V15.416C11.6904 14.9062 11.5439 14.5107 11.251 14.2295C10.958 13.9424 10.5449 13.7988 10.0117 13.7988H6.68945V12.0498H10.1436C11.3213 12.0498 12.2441 12.3574 12.9121 12.9727C13.5859 13.5879 13.9229 14.4463 13.9229 15.5479V22.5H11.6904ZM16.9902 22.5V13.7988H15.9355V12.0498H19.2227V22.5H16.9902ZM21.2354 22.5V20.7422H26.5791L28.8027 20.6631L30.042 20.8213V22.5H21.2354ZM26.5791 21.9902V15.8379C26.5791 15.1348 26.4121 14.6191 26.0781 14.291C25.7441 13.9629 25.2139 13.7988 24.4873 13.7988H21.8066V12.0498H24.6367C25.9785 12.0498 27.0068 12.3809 27.7217 13.043C28.4424 13.7051 28.8027 14.666 28.8027 15.9258V21.9902H26.5791ZM32.626 17.9473V13.7988H30.8594V12.0498H34.8584V17.9473H32.626ZM37.3633 22.5V20.7422H42.5137L36.6074 12.0498H39.1035L42.0654 16.6641L45.3789 21.4541V22.5H37.3633ZM42.5225 18.4043L41.1426 16.6201L43.4629 12.0498H45.9678L42.5225 18.4043ZM55.4424 22.7373C54.8623 22.7373 54.2412 22.6787 53.5791 22.5615C52.917 22.4502 52.2197 22.2598 51.4873 21.9902L51.9795 20.3467C52.5889 20.5811 53.1543 20.7568 53.6758 20.874C54.2031 20.9854 54.6865 21.0439 55.126 21.0498C56.0283 21.0498 56.749 20.8154 57.2881 20.3467C57.8271 19.8721 58.0967 19.1777 58.0967 18.2637V12.0498H60.3203V18.167C60.3203 19.1631 60.1152 20.001 59.7051 20.6807C59.2949 21.3604 58.7207 21.873 57.9824 22.2188C57.25 22.5645 56.4033 22.7373 55.4424 22.7373ZM52.0059 12.0498H54.2383L55.8555 19.582C55.9375 19.9688 56.0371 20.3057 56.1543 20.5928C56.2715 20.8799 56.4414 21.1406 56.6641 21.375L54.959 21.3574C54.6895 21.1582 54.4316 20.8916 54.1855 20.5576C53.9395 20.2236 53.7666 19.834 53.667 19.3887L52.0059 12.0498ZM62.3682 12.0498H71.0693V13.7988H69.2764V22.5H67.0439V13.7988H62.3682V12.0498ZM73.8818 17.9473V13.7988H72.1152V12.0498H76.1143V17.9473H73.8818ZM78.127 13.7988V9H80.3594V12.0498H85.5977V13.7988H78.127ZM86.3975 13.4648L82.7588 22.5H80.3857L84.7012 12.0498H86.3975V13.4648ZM100.047 22.5L92.6465 12.0498H95.1426L102.534 22.5H100.047ZM93.0508 22.5V18.8877C93.0508 17.8623 93.2324 17.0479 93.5957 16.4443C93.959 15.8408 94.5449 15.3955 95.3535 15.1084L96.1709 16.2334C95.5264 16.5732 95.2041 17.1562 95.2041 17.9824V22.5H93.0508ZM102.613 12.0498L99.0889 18.5098L97.6387 16.7695L100.108 12.0498H102.613ZM105.742 22.6758C105.414 22.6758 105.106 22.6553 104.819 22.6143C104.532 22.5791 104.222 22.5264 103.888 22.4561L103.914 20.7598C104.312 20.8242 104.737 20.8564 105.188 20.8564C105.628 20.8564 105.956 20.7334 106.173 20.4873C106.39 20.2412 106.498 19.8604 106.498 19.3447V13.7988H104.564V12.0498H108.73V19.5205C108.73 20.5342 108.47 21.3135 107.948 21.8584C107.427 22.4033 106.691 22.6758 105.742 22.6758ZM110.778 12.0498H119.479V13.7988H117.687V22.5H115.454V13.7988H110.778V12.0498ZM125.992 22.7021C125.096 22.7021 124.305 22.5 123.619 22.0957C122.939 21.6914 122.406 21.126 122.02 20.3994C121.639 19.667 121.442 18.8174 121.431 17.8506L121.422 17.0068C121.422 16.6143 121.475 16.2158 121.58 15.8115C121.691 15.4014 121.841 15.0293 122.028 14.6953C122.222 14.3555 122.43 14.0889 122.652 13.8955C122.676 13.8779 122.696 13.8604 122.714 13.8428C122.737 13.8252 122.761 13.8105 122.784 13.7988L122.775 13.7637C122.576 13.7871 122.324 13.8398 122.02 13.9219C121.715 13.998 121.437 14.0684 121.185 14.1328L120.763 12.498C121.226 12.3574 121.738 12.2373 122.301 12.1377C122.863 12.0322 123.435 11.9531 124.015 11.9004C124.601 11.8418 125.151 11.8125 125.667 11.8125C126.698 11.8125 127.577 12.0059 128.304 12.3926C129.036 12.7734 129.593 13.3271 129.974 14.0537C130.36 14.7803 130.554 15.668 130.554 16.7168V17.8506C130.554 18.8174 130.363 19.667 129.982 20.3994C129.607 21.126 129.077 21.6914 128.392 22.0957C127.706 22.5 126.906 22.7021 125.992 22.7021ZM125.983 20.8477C126.452 20.8477 126.862 20.7246 127.214 20.4785C127.565 20.2266 127.838 19.8779 128.031 19.4326C128.23 18.9814 128.33 18.457 128.33 17.8594V16.752C128.33 16.0957 128.233 15.5361 128.04 15.0732C127.853 14.6104 127.58 14.2588 127.223 14.0186C126.865 13.7725 126.435 13.6494 125.931 13.6494C125.468 13.6494 125.066 13.7783 124.727 14.0361C124.387 14.2881 124.126 14.6543 123.944 15.1348C123.763 15.6094 123.666 16.1865 123.654 16.8662V17.8594C123.654 18.457 123.751 18.9814 123.944 19.4326C124.138 19.8779 124.41 20.2266 124.762 20.4785C125.113 20.7246 125.521 20.8477 125.983 20.8477ZM139.07 22.5V15.8379C139.07 15.1348 138.9 14.6191 138.561 14.291C138.227 13.9629 137.699 13.7988 136.979 13.7988H132.909V12.0498H137.119C138.473 12.0498 139.507 12.3809 140.222 13.043C140.942 13.7051 141.303 14.666 141.303 15.9258V22.5H139.07ZM132.9 22.5V18.9229C132.9 18.2549 132.965 17.7598 133.094 17.4375C133.229 17.1094 133.349 16.8604 133.454 16.6904H135.238C135.186 16.9365 135.142 17.2236 135.106 17.5518C135.071 17.874 135.054 18.2637 135.054 18.7207V22.5H132.9Z" fill="white"/>
<g clip-path="url(#clip0_246_337)">
<path fill-rule="evenodd" clip-rule="evenodd" d="M173.82 11.9053L175.792 9.58482L177.922 7.04086C178.159 6.7582 178.389 6.46239 178.632 6.17973C178.654 6.15939 178.672 6.13453 178.685 6.10679C178.697 6.07905 178.704 6.04902 178.704 6.01866C178.704 5.9883 178.697 5.95828 178.685 5.93053C178.672 5.90279 178.654 5.87795 178.632 5.85761C177.914 5.01146 177.5 3.94928 177.455 2.84036C177.455 2.60371 177.455 2.36707 177.455 2.13042C177.455 1.89378 177.574 1.88719 177.758 1.97265C178.778 2.44536 179.745 3.02488 180.643 3.70149C181.986 4.71977 183.163 5.93929 184.134 7.31694C184.17 7.36749 184.203 7.42017 184.233 7.4747C184.237 7.52281 184.237 7.5712 184.233 7.61932C183.911 7.69262 183.587 7.74967 183.26 7.79023C182.157 7.89349 181.049 7.66455 180.078 7.13288C180.033 7.12208 179.986 7.12243 179.942 7.13388C179.897 7.14534 179.856 7.16757 179.822 7.19862C179.296 7.80339 178.777 8.42129 178.257 9.0392L176.127 11.5832C175.786 11.9907 175.47 12.3983 175.115 12.8124C175.095 12.8488 175.085 12.8894 175.085 12.9307C175.085 12.972 175.095 13.0127 175.115 13.0491C175.499 13.5393 175.811 14.0816 176.042 14.6596C176.073 14.6934 176.113 14.7193 176.156 14.7353C176.199 14.7513 176.246 14.7569 176.292 14.7516C177.238 14.5938 178.178 14.4229 179.118 14.2586L183.253 13.5355C183.648 13.4698 183.628 13.4763 183.654 13.0688C183.702 11.8796 184.151 10.7417 184.929 9.84118C185.008 9.74915 185.081 9.64397 185.166 9.55194C185.251 9.45991 185.383 9.44677 185.442 9.60454C185.758 10.4328 186.099 11.2479 186.369 12.0959C186.871 13.8461 187.071 15.6689 186.961 17.4862C186.961 17.7163 186.908 17.9398 186.882 18.2093C186.779 18.1753 186.678 18.1358 186.579 18.091C185.411 17.5023 184.504 16.4991 184.035 15.2775C184.028 15.2344 184.012 15.1933 183.987 15.1572C183.962 15.1211 183.93 15.0907 183.893 15.0682C183.855 15.0457 183.813 15.0316 183.77 15.0269C183.726 15.0222 183.682 15.0269 183.641 15.0408C181.288 15.4791 178.932 15.8976 176.574 16.2964C176.536 16.2988 176.499 16.309 176.464 16.3264C176.43 16.3438 176.4 16.368 176.375 16.3975C176.35 16.4271 176.332 16.4613 176.321 16.4982C176.31 16.5351 176.307 16.5738 176.311 16.6119C176.239 17.1707 176.147 17.7294 176.035 18.2816C176.011 18.3409 176.012 18.4073 176.036 18.4664C176.061 18.5254 176.108 18.5724 176.167 18.5971L182.359 22.1731C182.391 22.1989 182.428 22.2175 182.468 22.2279C182.507 22.2383 182.549 22.2401 182.589 22.2333C182.629 22.2264 182.668 22.2111 182.702 22.1883C182.736 22.1654 182.765 22.1356 182.786 22.1008C183.58 21.1887 184.665 20.5782 185.856 20.372C186.053 20.3326 186.251 20.3194 186.514 20.2865C186.454 20.5495 186.415 20.773 186.349 20.9899C185.747 23.0361 184.743 24.9422 183.398 26.5971C183.036 27.0441 182.622 27.4517 182.241 27.879C182.096 28.0367 181.991 28.017 181.905 27.8264C181.519 26.9354 181.38 25.9565 181.505 24.9932C181.557 24.5593 181.682 24.1321 181.781 23.6785L180.466 22.9094L175.818 20.2208C175.227 19.8724 175.233 19.8658 174.754 20.3391C174.026 21.0756 173.09 21.5712 172.071 21.759C172.024 21.7601 171.977 21.7716 171.935 21.7925C171.892 21.8134 171.854 21.8433 171.824 21.8802C171.794 21.917 171.773 21.96 171.761 22.006C171.749 22.0521 171.747 22.1001 171.756 22.1468C171.756 24.4958 171.756 26.8469 171.756 29.2003C171.745 29.2468 171.747 29.2954 171.76 29.3412C171.774 29.387 171.799 29.4285 171.834 29.4617C171.868 29.4948 171.911 29.5184 171.957 29.5302C172.003 29.542 172.052 29.5416 172.098 29.5289H180.196C180.196 29.5289 180.196 29.5815 180.196 29.6144C177.498 31.5061 174.28 32.5165 170.985 32.5071C167.69 32.4977 164.478 31.4689 161.79 29.5618C161.942 29.5618 162.047 29.5618 162.152 29.5618H169.817C170.231 29.5618 170.231 29.5618 170.231 29.1542C170.231 26.8469 170.231 24.5528 170.231 22.2389C170.243 22.1843 170.242 22.1278 170.229 22.0734C170.217 22.0191 170.192 21.9682 170.158 21.9243C170.123 21.8804 170.08 21.8446 170.03 21.8195C169.98 21.7943 169.925 21.7804 169.869 21.7787C168.789 21.5702 167.81 21.0054 167.089 20.1748C167.058 20.1229 167.016 20.0786 166.965 20.045C166.915 20.0115 166.858 19.9895 166.798 19.9807C166.739 19.9719 166.678 19.9765 166.62 19.9941C166.562 20.0118 166.509 20.0421 166.464 20.0828C164.492 21.2529 162.461 22.4032 160.456 23.5536C160.408 23.5712 160.364 23.5989 160.327 23.6348C160.29 23.6708 160.262 23.7141 160.243 23.762C160.224 23.8099 160.216 23.8613 160.219 23.9126C160.221 23.964 160.235 24.0141 160.259 24.0597C160.654 25.2854 160.598 26.6121 160.101 27.8001C160.056 27.8927 160.005 27.9827 159.95 28.0696C159.628 27.7541 159.293 27.478 159.043 27.169C158.27 26.2904 157.594 25.3318 157.025 24.3095C156.382 23.1434 155.885 21.9026 155.546 20.6152C155.48 20.3786 155.546 20.3326 155.789 20.3654C157.048 20.514 158.213 21.1059 159.076 22.0351C159.371 22.3638 159.385 22.3441 159.733 22.1271L165.472 18.8404C165.971 18.5511 165.958 18.5643 165.833 17.9989C165.737 17.5655 165.669 17.1264 165.629 16.6842C165.634 16.6417 165.63 16.5988 165.617 16.5579C165.605 16.5171 165.584 16.4792 165.556 16.4466C165.529 16.4141 165.495 16.3874 165.456 16.3684C165.418 16.3493 165.376 16.3383 165.334 16.3358L161.278 15.6259C160.318 15.4616 159.358 15.2972 158.399 15.1132C158.351 15.0937 158.3 15.0851 158.249 15.088C158.198 15.0908 158.149 15.105 158.104 15.1296C158.059 15.1542 158.02 15.1885 157.991 15.2301C157.961 15.2716 157.941 15.3192 157.932 15.3695C157.693 15.9966 157.332 16.5703 156.871 17.0577C156.409 17.545 155.856 17.9364 155.243 18.2093C155.192 18.224 155.139 18.235 155.085 18.2422C154.763 15.2362 155.299 12.2004 156.63 9.48622C157.017 9.80845 157.342 10.1982 157.59 10.6366C158.05 11.4391 158.307 12.3416 158.339 13.266C158.336 13.3065 158.34 13.3472 158.353 13.3857C158.366 13.4243 158.387 13.4598 158.414 13.49C158.441 13.5202 158.474 13.5445 158.511 13.5614C158.548 13.5783 158.588 13.5874 158.629 13.5881L163.289 14.4032L165.511 14.7976C165.899 14.8699 165.873 14.8568 166.044 14.5281C166.293 14.0548 166.583 13.5947 166.872 13.1411C166.893 13.1232 166.909 13.101 166.921 13.076C166.932 13.0511 166.938 13.024 166.938 12.9965C166.938 12.969 166.932 12.9419 166.921 12.9169C166.909 12.8919 166.893 12.8698 166.872 12.8519C166.063 11.8987 165.268 10.939 164.466 9.9858L162.211 7.3038C162.191 7.26936 162.163 7.23973 162.13 7.21698C162.098 7.19422 162.06 7.17887 162.021 7.172C161.981 7.16512 161.941 7.16688 161.902 7.17715C161.864 7.18743 161.828 7.20596 161.797 7.23148C160.626 7.87371 159.258 8.05875 157.958 7.75079C157.864 7.72286 157.771 7.68769 157.682 7.64562C157.952 7.2775 158.188 6.9291 158.451 6.60043C159.686 5.05271 161.194 3.74481 162.901 2.74176C163.335 2.48539 163.789 2.26189 164.216 2.03839C164.466 1.91349 164.525 1.96609 164.538 2.2356C164.621 3.5781 164.194 4.90242 163.342 5.94307C163.318 5.96282 163.299 5.98747 163.287 6.01529C163.274 6.04311 163.267 6.07343 163.267 6.10412C163.267 6.13481 163.274 6.16515 163.287 6.19297C163.299 6.22079 163.318 6.24542 163.342 6.26517L166.8 10.3671C167.207 10.8469 167.608 11.3268 168.003 11.8132C168.02 11.8408 168.043 11.8647 168.069 11.8833C168.096 11.902 168.126 11.915 168.158 11.9218C168.19 11.9285 168.223 11.9288 168.255 11.9226C168.287 11.9163 168.317 11.9038 168.344 11.8856C168.851 11.6818 169.363 11.4846 169.883 11.3202C169.969 11.3103 170.047 11.2668 170.102 11.199C170.156 11.1313 170.181 11.0449 170.172 10.9587C170.172 8.60098 170.172 6.24108 170.172 3.87899C170.18 3.83224 170.179 3.78418 170.167 3.73814C170.155 3.6921 170.133 3.64917 170.103 3.6123C170.073 3.57543 170.036 3.54551 169.993 3.52459C169.95 3.50368 169.904 3.49225 169.856 3.49113C168.583 3.23447 167.45 2.51562 166.675 1.47307C166.631 1.41658 166.592 1.35727 166.556 1.29557C166.552 1.25405 166.552 1.2122 166.556 1.17067C167.03 1.05892 167.496 0.9406 167.97 0.841997C170.37 0.385264 172.842 0.479678 175.201 1.11809C175.431 1.17726 175.444 1.25613 175.273 1.47963C174.491 2.52764 173.348 3.2471 172.065 3.49771C172.017 3.49789 171.969 3.5086 171.926 3.52911C171.882 3.54961 171.844 3.57941 171.813 3.61639C171.783 3.65337 171.76 3.69665 171.748 3.74316C171.736 3.78966 171.734 3.83826 171.743 3.88555C171.743 6.24326 171.743 8.60317 171.743 10.9653C171.729 11.0427 171.746 11.1224 171.791 11.1874C171.835 11.2525 171.902 11.2978 171.979 11.3137C172.558 11.5043 173.123 11.7278 173.695 11.9381L173.82 11.9053Z" fill="white"/>
</g>
<defs>
<clipPath id="clip0_246_337">
<rect width="31.9869" height="32" fill="white" transform="translate(155 0.5)"/>
</clipPath>
</defs>
</svg>
